<?xml version="1.0" standalone="no"?>
<!DOCTYPE svg PUBLIC "-//W3C//DTD SVG 1.1//EN" "http://www.w3.org/Graphics/SVG/1.1/DTD/svg11.dtd" >
<svg xmlns="http://www.w3.org/2000/svg">
<metadata>Generated by IcoMoon</metadata>
<defs>
<font id="icomoon" horiz-adv-x="1024">
<font-face units-per-em="1024" ascent="960" descent="-64" />
<missing-glyph horiz-adv-x="1024" />
<glyph unicode="&#x20;" horiz-adv-x="512" d="" />
<glyph unicode="&#xe900;" glyph-name="search" horiz-adv-x="964" d="M440.135 49.834c-242.703 0-440.136 197.495-440.136 440.136s197.433 440.136 440.136 440.136 440.136-197.433 440.136-440.136-197.433-440.136-440.136-440.136zM440.135 804.415c-173.351 0-314.383-141.032-314.383-314.383s141.032-314.383 314.383-314.383c173.351 0 314.383 141.032 314.383 314.383 0.063 173.287-140.97 314.383-314.383 314.383zM827.518-34.106v0c-51.433 0-94.315 36.72-114.624 98.276-13.644 41.184-8.174 83.185 14.902 115.19 22.95 31.753 60.613 49.924 103.369 49.924 55.583 0 99.031-22.51 120.094-61.807s15.845-87.902-14.399-133.424c-39.424-59.293-85.387-68.158-109.342-68.158z" />
<glyph unicode="&#xe901;" glyph-name="eye" d="M61.44 448.001l-54.953 27.476c-8.649-17.297-8.649-37.657 0-54.953l54.953 27.476zM962.56 448.001l54.952-27.476c8.651 17.297 8.651 37.657 0 54.953l-54.952-27.476zM61.44 448.001c54.953-27.476 54.946-27.493 54.936-27.512-0.002-0.004-0.010-0.018-0.012-0.028-0.008-0.013-0.012-0.026-0.014-0.032-0.006-0.012-0.001-0.003 0.012 0.026 0.029 0.056 0.095 0.187 0.201 0.392 0.21 0.41 0.576 1.116 1.093 2.096 1.037 1.96 2.686 5.019 4.933 9.014 4.502 8.003 11.378 19.717 20.541 33.909 18.404 28.499 45.632 66.343 80.891 103.952 71.638 76.413 169.163 144.42 287.979 144.42v122.879c-167.906 0-295.663-95.831-377.624-183.259-41.541-44.311-73.194-88.387-94.469-121.328-10.674-16.53-18.837-30.412-24.418-40.332-2.791-4.963-4.945-8.946-6.446-11.784-0.751-1.42-1.342-2.557-1.766-3.386-0.212-0.417-0.386-0.755-0.518-1.014-0.065-0.132-0.123-0.24-0.166-0.33-0.022-0.045-0.043-0.085-0.060-0.12-0.009-0.016-0.019-0.040-0.026-0.049-0.011-0.020-0.020-0.042 54.932-27.518zM511.999 714.242c118.813 0 216.339-68.007 287.98-144.42 35.261-37.609 62.485-75.452 80.891-103.952 9.159-14.19 16.042-25.909 20.538-33.909 2.248-3.996 3.896-7.054 4.932-9.014 0.523-0.98 0.885-1.687 1.092-2.096 0.109-0.204 0.18-0.336 0.203-0.392 0.012-0.028 0.017-0.036 0.012-0.026 0 0.006-0.006 0.015-0.012 0.032-0.006 0.008-0.012 0.022-0.017 0.028-0.006 0.015-0.012 0.035 54.941 27.512s54.947 27.496 54.932 27.518c-0.006 0.009-0.017 0.033-0.026 0.049-0.017 0.036-0.036 0.077-0.061 0.12-0.043 0.090-0.105 0.201-0.165 0.33-0.135 0.259-0.306 0.597-0.523 1.014-0.425 0.829-1.014 1.964-1.763 3.386-1.505 2.838-3.656 6.822-6.446 11.784-5.58 9.919-13.745 23.8-24.422 40.332-21.27 32.941-52.925 77.017-94.464 121.328-81.967 87.425-209.72 183.259-377.626 183.259v-122.879zM962.56 448.001c-54.952 27.476-54.947 27.493-54.941 27.512 0.006 0.004 0.012 0.017 0.017 0.028 0.006 0.014 0.012 0.026 0.012 0.032 0.006 0.012 0 0.003-0.012-0.026-0.026-0.056-0.092-0.186-0.203-0.392-0.208-0.41-0.572-1.116-1.092-2.096-1.038-1.959-2.685-5.018-4.932-9.013-4.497-8.003-11.379-19.718-20.538-33.909-18.406-28.498-45.632-66.342-80.891-103.951-71.639-76.414-169.163-144.422-287.98-144.422v-122.879c167.906 0 295.658 95.833 377.626 183.258 41.539 44.311 73.193 88.389 94.464 121.33 10.679 16.53 18.843 30.412 24.422 40.332 2.789 4.964 4.941 8.946 6.446 11.784 0.749 1.42 1.34 2.556 1.763 3.385 0.214 0.417 0.387 0.755 0.523 1.014 0.061 0.132 0.124 0.241 0.165 0.331 0.026 0.045 0.043 0.085 0.061 0.119 0.006 0.016 0.017 0.040 0.026 0.049 0.012 0.020 0.017 0.042-54.932 27.518zM511.999 181.759c-118.814 0-216.34 68.008-287.979 144.422-35.259 37.609-62.486 75.452-80.891 103.951-9.163 14.19-16.042 25.909-20.541 33.909-2.248 3.996-3.897 7.054-4.933 9.013-0.519 0.98-0.884 1.687-1.093 2.096-0.106 0.205-0.173 0.336-0.201 0.392-0.012 0.028-0.017 0.036-0.012 0.026 0.003-0.006 0.008-0.014 0.014-0.032 0.004-0.008 0.012-0.022 0.012-0.028 0.008-0.015 0.015-0.036-54.936-27.512s-54.945-27.496-54.932-27.518c0.005-0.009 0.014-0.033 0.026-0.049 0.016-0.036 0.037-0.077 0.060-0.119 0.045-0.090 0.101-0.201 0.166-0.331 0.133-0.259 0.304-0.597 0.518-1.014 0.426-0.829 1.016-1.963 1.766-3.385 1.502-2.838 3.654-6.822 6.446-11.784 5.581-9.919 13.743-23.8 24.418-40.332 21.274-32.941 52.928-77.019 94.469-121.33 81.962-87.422 209.718-183.258 377.624-183.258v122.879zM573.439 448.001c0-33.933-27.509-61.44-61.44-61.44v-122.882c101.796 0 184.324 82.526 184.324 184.324h-122.882zM511.999 386.561c-33.934 0-61.44 27.509-61.44 61.44h-122.879c0-101.796 82.524-184.324 184.319-184.324v122.882zM450.559 448.001c0 33.934 27.508 61.44 61.44 61.44v122.879c-101.797 0-184.319-82.524-184.319-184.319h122.879zM511.999 509.441c33.933 0 61.44-27.508 61.44-61.44h122.882c0 101.797-82.526 184.319-184.324 184.319v-122.879z" />
<glyph unicode="&#xe902;" glyph-name="mail" d="M511.998 401.456l-26.69-38.132c16.027-11.221 37.359-11.221 53.384 0l-26.692 38.132zM139.636 773.819h744.728v93.091h-744.728v-93.091zM884.363 773.819c25.492 0 46.544-21.051 46.544-46.545h93.093c0 76.906-62.73 139.636-139.636 139.636v-93.091zM930.906 727.273v-558.546h93.093v558.546h-93.093zM930.906 168.728c0-25.492-21.051-46.544-46.544-46.544v-93.093c76.906 0 139.636 62.73 139.636 139.636h-93.093zM884.363 122.184h-744.728v-93.093h744.728v93.093zM139.636 122.184c-25.493 0-46.545 21.051-46.545 46.544h-93.090c0-76.906 62.73-139.636 139.636-139.636v93.093zM93.091 168.728v558.546h-93.090v-558.546h93.090zM93.091 727.273c0 25.493 21.051 46.545 46.545 46.545v93.091c-76.906 0-139.636-62.73-139.636-139.636h93.090zM950.763 765.405l-465.455-325.816 53.384-76.263 465.452 325.817-53.38 76.262zM538.69 439.588l-465.453 325.816-53.384-76.262 465.454-325.817 53.384 76.263z" />
<glyph unicode="&#xe903;" glyph-name="category" d="M279.273 494.545h-93.091c-118.319 0-186.182 67.863-186.182 186.182v93.091c0 118.319 67.863 186.182 186.182 186.182h93.091c118.319 0 186.182-67.863 186.182-186.182v-93.091c0-118.319-67.863-186.182-186.182-186.182zM186.181 866.908c-66.979 0-93.091-26.112-93.091-93.091v-93.091c0-66.979 26.112-93.091 93.091-93.091h93.091c66.979 0 93.091 26.112 93.091 93.091v93.091c0 66.979-26.112 93.091-93.091 93.091h-93.091zM837.818 494.545h-93.091c-118.319 0-186.182 67.863-186.182 186.182v93.091c0 118.319 67.863 186.182 186.182 186.182h93.091c118.319 0 186.182-67.863 186.182-186.182v-93.091c0-118.319-67.863-186.182-186.182-186.182zM744.726 866.908c-66.979 0-93.091-26.112-93.091-93.091v-93.091c0-66.979 26.112-93.091 93.091-93.091h93.091c66.979 0 93.091 26.112 93.091 93.091v93.091c0 66.979-26.112 93.091-93.091 93.091h-93.091zM837.818-64h-93.091c-118.319 0-186.182 67.863-186.182 186.182v93.091c0 118.319 67.863 186.182 186.182 186.182h93.091c118.319 0 186.182-67.863 186.182-186.182v-93.091c0-118.319-67.863-186.182-186.182-186.182zM744.726 308.363c-66.979 0-93.091-26.112-93.091-93.091v-93.091c0-66.979 26.112-93.091 93.091-93.091h93.091c66.979 0 93.091 26.112 93.091 93.091v93.091c0 66.979-26.112 93.091-93.091 93.091h-93.091zM279.273-64h-93.091c-118.319 0-186.182 67.863-186.182 186.182v93.091c0 118.319 67.863 186.182 186.182 186.182h93.091c118.319 0 186.182-67.863 186.182-186.182v-93.091c0-118.319-67.863-186.182-186.182-186.182zM186.181 308.363c-66.979 0-93.091-26.112-93.091-93.091v-93.091c0-66.979 26.112-93.091 93.091-93.091h93.091c66.979 0 93.091 26.112 93.091 93.091v93.091c0 66.979-26.112 93.091-93.091 93.091h-93.091z" />
<glyph unicode="&#xe904;" glyph-name="user" d="M839.228 3.703c0-37.392 30.31-67.703 67.703-67.703s67.703 30.31 67.703 67.703h-135.405zM709.466 299.901v0zM314.534 299.901v0zM117.069 102.437v0zM49.366 3.703c0-37.392 30.311-67.703 67.703-67.703s67.703 30.31 67.703 67.703h-135.405zM974.634 3.703v98.734h-135.405v-98.734h135.405zM974.634 102.437c0 70.326-27.937 137.771-77.665 187.502l-95.745-95.748c24.336-24.336 38.005-57.341 38.005-91.754h135.405zM896.969 289.938c-49.728 49.728-117.176 77.665-187.502 77.665v-135.405c34.414 0 67.422-13.673 91.758-38.008l95.745 95.748zM709.466 367.603h-394.933v-135.405h394.933v135.405zM314.534 367.603c-70.326 0-137.772-27.937-187.501-77.665l95.746-95.748c24.335 24.336 57.343 38.008 91.755 38.008v135.405zM127.032 289.938c-49.729-49.731-77.666-117.176-77.666-187.502h135.405c0 34.414 13.672 67.422 38.006 91.754l-95.746 95.748zM49.366 102.437v-98.734h135.405v98.734h-135.405zM641.764 694.833c0-71.667-58.099-129.765-129.762-129.765v-135.405c146.447 0 265.167 118.72 265.167 265.171h-135.405zM512.002 565.067c-71.667 0-129.765 58.099-129.765 129.765h-135.405c0-146.45 118.72-265.171 265.171-265.171v135.405zM382.236 694.833c0 71.666 58.099 129.762 129.765 129.762v135.405c-146.45 0-265.171-118.72-265.171-265.167h135.405zM512.002 824.595c71.663 0 129.762-58.096 129.762-129.762h135.405c0 146.447-118.72 265.167-265.167 265.167v-135.405z" />
<glyph unicode="&#xe905;" glyph-name="coupons" d="M232.726 773.819c-25.708 0-46.545-20.841-46.545-46.545s20.841-46.545 46.545-46.545v93.092zM233.194 680.726c25.708 0 46.545 20.841 46.545 46.545s-20.841 46.545-46.545 46.545v-93.092zM232.726 215.274c-25.708 0-46.545-20.84-46.545-46.545s20.841-46.545 46.545-46.545v93.092zM233.194 122.181c25.708 0 46.545 20.84 46.545 46.545s-20.841 46.545-46.545 46.545v-93.092zM139.637 866.907h744.727v93.092h-744.727v-93.092zM884.363 866.907c25.709 0 46.545-20.84 46.545-46.545h93.092c0 77.119-62.516 139.637-139.637 139.637v-93.092zM930.907 820.363v-186.182h93.092v186.182h-93.092zM930.907 634.182c0-25.708-20.84-46.545-46.545-46.545v-93.092c77.121 0 139.637 62.519 139.637 139.637h-93.092zM884.363 587.637h-744.727v-93.092h744.727v93.092zM139.637 587.637c-25.708 0-46.545 20.841-46.545 46.545h-93.092c0-77.119 62.519-139.637 139.637-139.637v93.092zM93.093 634.182v186.182h-93.092v-186.182h93.092zM93.093 820.363c0 25.708 20.841 46.545 46.545 46.545v93.092c-77.119 0-139.637-62.519-139.637-139.637h93.092zM139.637 308.363h744.727v93.092h-744.727v-93.092zM884.363 308.363c25.709 0 46.545-20.84 46.545-46.545h93.092c0 77.121-62.516 139.637-139.637 139.637v-93.092zM930.907 261.818v-186.182h93.092v186.182h-93.092zM930.907 75.637c0-25.709-20.84-46.545-46.545-46.545v-93.092c77.121 0 139.637 62.516 139.637 139.637h-93.092zM884.363 29.093h-744.727v-93.092h744.727v93.092zM139.637 29.093c-25.708 0-46.545 20.84-46.545 46.545h-93.092c0-77.121 62.519-139.637 139.637-139.637v93.092zM93.093 75.637v186.182h-93.092v-186.182h93.092zM93.093 261.818c0 25.709 20.841 46.545 46.545 46.545v93.092c-77.119 0-139.637-62.516-139.637-139.637h93.092zM232.726 680.726h0.465v93.092h-0.465v-93.092zM232.726 122.181h0.465v93.092h-0.465v-93.092z" />
<glyph unicode="&#xe906;" glyph-name="sales" d="M947.503 359.649l34.201-34.201 0.102 0.102-34.301 34.099zM600.714 12.859l-34.201 34.201-0.019-0.019 34.22-34.181zM463.836 12.859l34.22 34.181-0.039 0.039-34.181-34.22zM48.367 427.846h-48.367c0-12.837 5.103-25.145 14.187-34.22l34.18 34.22zM48.367 911.512v48.367c-26.712 0-48.367-21.655-48.367-48.367h48.367zM532.033 911.512l34.201 34.201c-9.069 9.070-21.373 14.167-34.201 14.167v-48.367zM947.503 496.043l34.301 34.099-0.102 0.102-34.201-34.201zM290.2 718.046c-26.712 0-48.367-21.655-48.367-48.367s21.655-48.367 48.367-48.367v96.733zM290.684 621.312c26.712 0 48.367 21.655 48.367 48.367s-21.655 48.367-48.367 48.367v-96.733zM913.303 393.848l-346.789-346.789 68.4-68.4 346.789 346.789-68.4 68.4zM566.494 47.040c-4.494-4.498-9.828-8.063-15.7-10.496l37.044-89.362c17.615 7.304 33.62 18.007 47.095 31.497l-68.439 68.361zM550.795 36.545c-5.872-2.437-12.165-3.69-18.52-3.69v-96.733c19.066 0 37.948 3.758 55.563 11.062l-37.044 89.362zM532.275 32.854c-6.355 0-12.648 1.253-18.52 3.69l-37.044-89.362c17.615-7.304 36.497-11.062 55.563-11.062v96.733zM513.756 36.545c-5.872 2.433-11.207 5.998-15.7 10.496l-68.439-68.361c13.475-13.49 29.479-24.193 47.095-31.497l37.044 89.362zM498.017 47.078l-415.47 414.986-68.36-68.439 415.469-414.986 68.361 68.439zM96.732 427.846v483.667h-96.733v-483.667h96.733zM48.367 863.146h483.667v96.733h-483.667v-96.733zM497.833 877.312l415.47-415.469 68.4 68.4-415.47 415.47-68.4-68.401zM913.202 461.944c9.006-9.064 14.065-21.32 14.065-34.099h96.733c0 38.336-15.167 75.109-42.195 102.296l-68.603-68.197zM927.266 427.846c0-12.779-5.059-25.034-14.065-34.099l68.603-68.197c27.027 27.187 42.195 63.96 42.195 102.296h-96.733zM290.2 621.312h0.484v96.733h-0.484v-96.733z" />
<glyph unicode="&#xe907;" glyph-name="stores" d="M907.93 865.454h-834.907c-11.075 0-21.683-4.403-29.514-12.232s-12.232-18.446-12.232-29.514v-166.982c0.078-25.841 8.134-51.017 23.089-72.091s36.044-37.017 60.402-45.631v-466.713c0-11.074 4.403-21.686 12.232-29.514s18.446-12.232 29.514-12.232h667.926c11.074 0 21.686 4.405 29.514 12.232s12.232 18.446 12.232 29.514v466.713c24.355 8.614 45.464 24.552 60.405 45.631s23.010 46.259 23.086 72.091v166.982c0 11.075-4.405 21.683-12.232 29.514s-18.446 12.232-29.514 12.232zM615.711 781.962h83.491v-125.236c0-11.075-4.405-21.683-12.232-29.514s-18.446-12.232-29.514-12.232c-11.074 0-21.686 4.403-29.514 12.232s-12.232 18.446-12.232 29.514v125.236zM448.73 781.962h83.491v-125.236c0-11.075-4.405-21.683-12.232-29.514s-18.446-12.232-29.514-12.232c-11.074 0-21.686 4.403-29.514 12.232s-12.232 18.446-12.232 29.514v125.236zM281.748 781.962h83.491v-125.236c0-11.075-4.403-21.683-12.232-29.514s-18.446-12.232-29.514-12.232c-11.075 0-21.683 4.403-29.514 12.232s-12.232 18.446-12.232 29.514v125.236zM156.511 614.981c-11.075 0-21.683 4.403-29.514 12.232s-12.232 18.446-12.232 29.514v125.236h83.491v-125.236c0-11.075-4.403-21.683-12.232-29.514s-18.446-12.232-29.514-12.232zM573.966 114.037h-166.982v166.982c0 22.146 8.793 43.382 24.448 59.042s36.895 24.448 59.042 24.448c22.146 0 43.382-8.793 59.042-24.448s24.448-36.895 24.448-59.042v-166.982zM782.693 114.037h-125.236v166.982c0 44.283-17.594 86.753-48.913 118.068-31.314 31.321-73.785 48.913-118.068 48.913s-86.752-17.594-118.070-48.913c-31.317-31.314-48.912-73.785-48.912-118.068v-166.982h-125.236v424.969c15.346 5.697 29.504 14.187 41.746 25.047 22.961-20.534 52.679-31.892 83.491-31.892s60.53 11.35 83.491 31.892c22.96-20.534 52.682-31.892 83.491-31.892s60.531 11.35 83.491 31.892c22.96-20.534 52.682-31.892 83.491-31.892s60.531 11.35 83.491 31.892c12.243-10.86 26.398-19.349 41.746-25.047v-424.969zM866.184 656.726c0-11.075-4.405-21.683-12.232-29.514s-18.446-12.232-29.514-12.232c-11.074 0-21.686 4.403-29.514 12.232s-12.232 18.446-12.232 29.514v125.236h83.491v-125.236z" />
<glyph unicode="&#xe908;" glyph-name="finger" d="M659.591-64h-213.020c-40.295 0-79.001 17.003-106.095 46.723l-174.314 190.142c-22.671 24.537-36.079 56.676-37.669 90.336-1.728 33.315 8.432 66.56 28.615 93.378l92.341 123.098c17.21 22.878 49.695 27.509 72.573 10.368s27.578-49.695 10.368-72.573l-92.341-123.098c-5.668-7.465-8.501-16.726-8.018-26.057 0.484-9.538 4.216-18.454 10.506-25.297l174.383-190.28c7.603-8.294 18.385-12.994 29.651-12.994h213.020c81.835 0 132.429 68.703 132.429 132.429v394.868c0 28.615 23.223 51.838 51.838 51.838s51.838-23.223 51.838-51.838v-394.937c0-113.56-90.267-236.105-236.105-236.105zM705.623 488.87c-28.615 0-51.838 23.223-51.838 51.838v26.265c0 84.945 62.275 130.839 120.955 130.839s120.955-45.894 120.955-130.839c0-28.615-23.223-51.838-51.838-51.838s-51.838 23.223-51.838 51.838c0 34.49-34.559 34.49-34.559 0v-26.265c0-28.615-23.223-51.838-51.838-51.838zM705.623 488.87c-28.615 0-51.838 23.223-51.838 51.838v79.001c0 34.49-34.559 34.49-34.559 0v-79.001c0-28.615-23.223-51.838-51.838-51.838s-51.838 23.223-51.838 51.838v79.001c0 84.945 62.275 130.839 120.955 130.839s120.955-45.894 120.955-130.839v-79.001c0-28.615-23.223-51.838-51.838-51.838zM567.388 488.87c-28.615 0-51.838 23.223-51.838 51.838v115.219c0 34.49-34.559 34.49-34.559 0v-115.219c0-28.615-23.223-51.838-51.838-51.838s-51.838 23.223-51.838 51.838v115.219c0 84.945 62.344 130.839 120.955 130.839 58.681 0 120.955-45.894 120.955-130.839v-115.219c0-28.615-23.223-51.838-51.838-51.838zM290.919 258.502c-28.615 0-51.838 23.223-51.838 51.838v529.923c0 32.278 12.579 62.689 35.457 85.498 45.756 45.687 125.448 45.617 171.066 0 22.463-22.463 35.388-53.635 35.388-85.498v-299.555c0-28.615-23.223-51.838-51.838-51.838s-51.838 23.223-51.838 51.838v299.555c0 4.493-1.866 8.916-5.046 12.165-6.497 6.497-17.971 6.497-24.468 0-3.179-3.249-5.046-7.672-5.046-12.165v-529.923c0-28.615-23.223-51.838-51.838-51.838z" />
<glyph unicode="&#xe909;" glyph-name="calendar" d="M749.712 905.143c0 30.297-24.559 54.857-54.857 54.857s-54.857-24.56-54.857-54.857h109.714zM639.998 722.286c0-30.297 24.559-54.857 54.857-54.857s54.857 24.56 54.857 54.857h-109.714zM384.001 905.143c0 30.297-24.56 54.857-54.857 54.857s-54.857-24.56-54.857-54.857h109.714zM274.287 722.286c0-30.297 24.56-54.857 54.857-54.857s54.857 24.56 54.857 54.857h-109.714zM100.572 594.286c-30.297 0-54.857-24.56-54.857-54.857s24.56-54.857 54.857-54.857v109.714zM923.428 484.572c30.298 0 54.857 24.56 54.857 54.857s-24.559 54.857-54.857 54.857v-109.714zM192.001 758.858h639.997v109.714h-639.997v-109.714zM831.998 758.858c20.199 0 36.573-16.374 36.573-36.572h109.714c0 80.791-65.494 146.286-146.287 146.286v-109.714zM868.571 722.286v-639.998h109.714v639.998h-109.714zM868.571 82.287c0-20.199-16.375-36.573-36.573-36.573v-109.714c80.793 0 146.287 65.494 146.287 146.287h-109.714zM831.998 45.714h-639.997v-109.714h639.997v109.714zM192.001 45.714c-20.197 0-36.572 16.375-36.572 36.573h-109.714c0-80.793 65.494-146.287 146.286-146.287v109.714zM155.429 82.287v639.998h-109.714v-639.998h109.714zM155.429 722.286c0 20.197 16.374 36.572 36.572 36.572v109.714c-80.791 0-146.286-65.494-146.286-146.286h109.714zM639.998 905.143v-182.856h109.714v182.856h-109.714zM274.287 905.143v-182.856h109.714v182.856h-109.714zM100.572 484.572h822.857v109.714h-822.857v-109.714z" />
<glyph unicode="&#xe90a;" glyph-name="repeat" d="M755.523 947.481c-16.693 16.693-43.759 16.693-60.452 0s-16.693-43.758 0-60.45l60.452 60.45zM895.936 746.617l30.223-30.225c8.017 8.016 12.522 18.889 12.522 30.225s-4.505 22.209-12.522 30.226l-30.223-30.226zM695.070 606.205c-16.693-16.693-16.693-43.758 0-60.451s43.759-16.692 60.452 0l-60.452 60.451zM85.319 490.66c0-23.607 19.138-42.747 42.745-42.747s42.745 19.139 42.745 42.747h-85.49zM298.702 746.617v0zM268.477-51.48c16.693-16.693 43.758-16.693 60.451 0s16.693 43.759 0 60.452l-60.451-60.452zM128.064 149.386l-30.225 30.223c-8.017-8.017-12.52-18.89-12.52-30.223 0-11.339 4.503-22.212 12.52-30.229l30.225 30.229zM328.928 289.799c16.693 16.693 16.693 43.754 0 60.447s-43.758 16.693-60.451 0l60.451-60.447zM938.681 405.343c0 23.604-19.136 42.743-42.745 42.743s-42.745-19.139-42.745-42.743h85.49zM695.070 887.031l170.642-170.638 60.447 60.451-170.637 170.638-60.452-60.45zM865.713 776.843l-170.642-170.639 60.452-60.451 170.637 170.639-60.447 60.451zM170.809 490.66v85.32h-85.49v-85.32h85.49zM170.809 575.98c0 33.919 13.475 66.45 37.459 90.434l-60.45 60.45c-40.017-40.017-62.499-94.291-62.499-150.884h85.49zM208.268 666.414c23.985 23.984 56.515 37.459 90.434 37.459v85.49c-56.593 0-110.867-22.481-150.884-62.499l60.45-60.45zM298.702 703.872h597.234v85.49h-597.234v-85.49zM328.928 8.973l-170.639 170.637-60.45-60.452 170.638-170.637 60.451 60.452zM158.289 119.157l170.639 170.642-60.451 60.447-170.638-170.637 60.45-60.452zM853.191 405.343v-85.321h85.49v85.321h-85.49zM853.191 320.022c0-33.919-13.474-66.452-37.457-90.435l60.447-60.452c40.016 40.021 62.5 94.294 62.5 150.887h-85.49zM815.734 229.587c-23.988-23.983-56.516-37.457-90.435-37.457v-85.49c56.593 0 110.865 22.478 150.882 62.495l-60.447 60.452zM725.299 192.131h-597.235v-85.49h597.235v85.49z" />
<glyph unicode="&#xe90b;" glyph-name="lock" d="M232.684 494.535c0-25.753 20.877-46.632 46.63-46.632s46.63 20.88 46.63 46.632h-93.26zM279.314 680.685v0zM512 913.369v0zM698.057 494.535c0-25.753 20.875-46.632 46.63-46.632 25.75 0 46.63 20.88 46.63 46.632h-93.26zM186.241 447.904h651.516v93.262h-651.516v-93.262zM837.758 447.904c25.655 0 46.446-20.791 46.446-46.44h93.26c0 77.155-62.546 139.702-139.706 139.702v-93.262zM884.203 401.464v-325.763h93.26v325.763h-93.26zM884.203 75.701c0-25.649-20.791-46.44-46.446-46.44v-93.26c77.16 0 139.706 62.546 139.706 139.701h-93.26zM837.758 29.26h-651.516v-93.26h651.516v93.26zM186.241 29.26c-25.65 0-46.445 20.791-46.445 46.44h-93.26c0-77.155 62.548-139.701 139.705-139.701v93.26zM139.797 75.701v325.763h-93.26v-325.763h93.26zM139.797 401.464c0 25.649 20.793 46.44 46.445 46.44v93.262c-77.157 0-139.705-62.548-139.705-139.702h93.26zM325.944 494.535v186.149h-93.26v-186.149h93.26zM325.944 680.685c0 49.345 19.602 96.669 54.494 131.561l-65.946 65.946c-52.383-52.381-81.81-123.427-81.81-197.506h93.26zM380.439 812.246c34.892 34.892 82.216 54.494 131.561 54.494v93.26c-74.079 0-145.124-29.429-197.506-81.81l65.946-65.946zM512 866.739c49.344 0 96.667-19.602 131.558-54.494l65.947 65.946c-52.383 52.381-123.427 81.81-197.505 81.81v-93.26zM643.558 812.246c34.897-34.892 54.499-82.216 54.499-131.561h93.26c0 74.079-29.43 145.124-81.812 197.506l-65.947-65.946zM698.057 680.685v-186.149h93.26v186.149h-93.26z" />
<glyph unicode="&#xe90c;" glyph-name="file-text" d="M605.074 913.369l32.977 32.973c-8.745 8.744-20.607 13.658-32.977 13.658v-46.63zM232.778 913.369v0zM139.704 820.296v0zM139.704 75.701v0zM884.296 634.146h46.63c0 12.368-4.915 24.228-13.654 32.973l-32.977-32.973zM605.074 634.146h-46.63c0-25.753 20.881-46.63 46.63-46.63v46.63zM698.15 354.834c25.75 0 46.63 20.875 46.63 46.63 0 25.75-20.881 46.628-46.63 46.628v-93.258zM325.853 448.093c-25.753 0-46.63-20.878-46.63-46.628 0-25.755 20.877-46.63 46.63-46.63v93.258zM698.15 168.682c25.75 0 46.63 20.881 46.63 46.63 0 25.755-20.881 46.63-46.63 46.63v-93.26zM325.853 261.942c-25.753 0-46.63-20.875-46.63-46.63 0-25.75 20.877-46.63 46.63-46.63v93.26zM418.926 540.98c25.753 0 46.63 20.877 46.63 46.63s-20.877 46.63-46.63 46.63v-93.26zM325.853 634.24c-25.753 0-46.63-20.877-46.63-46.63s20.877-46.63 46.63-46.63v93.26zM605.074 960h-372.295v-93.26h372.295v93.26zM232.778 960c-37.051 0-72.586-14.718-98.786-40.918l65.944-65.946c8.71 8.71 20.524 13.603 32.841 13.603v93.26zM133.993 919.081c-26.2-26.199-40.919-61.734-40.919-98.786h93.26c0 12.317 4.894 24.131 13.603 32.84l-65.944 65.946zM93.074 820.296v-744.595h93.26v744.595h-93.26zM93.074 75.701c0-37.047 14.719-72.587 40.919-98.784l65.944 65.947c-8.709 8.706-13.603 20.523-13.603 32.837h-93.26zM133.993-23.083c26.199-26.202 61.734-40.917 98.786-40.917v93.26c-12.317 0-24.131 4.892-32.841 13.603l-65.944-65.947zM232.778-64h558.448v93.26h-558.448v-93.26zM791.226-64c37.047 0 72.581 14.715 98.784 40.917l-65.947 65.947c-8.706-8.712-20.523-13.603-32.837-13.603v-93.26zM890.009-23.083c26.197 26.197 40.917 61.73 40.917 98.784h-93.26c0-12.314-4.892-24.131-13.603-32.837l65.947-65.947zM930.926 75.701v558.447h-93.26v-558.447h93.26zM917.272 667.12l-279.222 279.222-65.947-65.946 279.222-279.222 65.947 65.946zM558.444 913.369v-279.222h93.26v279.222h-93.26zM605.074 587.516h279.222v93.26h-279.222v-93.26zM698.15 448.093h-372.297v-93.258h372.297v93.258zM698.15 261.942h-372.297v-93.26h372.297v93.26zM418.926 634.24h-93.074v-93.26h93.074v93.26z" />
<glyph unicode="&#xe90d;" glyph-name="info" d="M465.37 261.854c0-25.755 20.877-46.63 46.63-46.63s46.627 20.875 46.627 46.63h-93.257zM558.627 448c0 25.753-20.875 46.629-46.627 46.629s-46.63-20.877-46.63-46.629h93.257zM512 680.777c-25.753 0-46.63-20.877-46.63-46.63s20.877-46.63 46.63-46.63v93.26zM512.466 587.517c25.749 0 46.63 20.877 46.63 46.63s-20.881 46.63-46.63 46.63v-93.26zM930.739 448c0-231.262-187.475-418.737-418.74-418.737v-93.26c282.77 0 512 229.23 512 511.997h-93.26zM512 29.263c-231.263 0-418.738 187.475-418.738 418.737h-93.26c0-282.767 229.23-511.997 511.999-511.997v93.26zM93.261 448c0 231.263 187.475 418.738 418.738 418.738v93.26c-282.769 0-511.999-229.23-511.999-511.998h93.26zM512 866.738c231.265 0 418.74-187.476 418.74-418.738h93.26c0 282.769-229.23 511.998-512 511.998v-93.26zM558.627 261.854v186.146h-93.257v-186.146h93.257zM512 587.517h0.467v93.26h-0.467v-93.26z" />
<glyph unicode="&#xe90e;" glyph-name="menu" d="M51.2 499.2c-28.277 0-51.2-22.922-51.2-51.2s22.924-51.2 51.2-51.2v102.4zM972.8 396.8c28.278 0 51.2 22.922 51.2 51.2s-22.922 51.2-51.2 51.2v-102.4zM51.2 806.4c-28.277 0-51.2-22.924-51.2-51.2s22.924-51.2 51.2-51.2v102.4zM972.8 703.999c28.278 0 51.2 22.924 51.2 51.2s-22.922 51.2-51.2 51.2v-102.4zM51.2 192.001c-28.277 0-51.2-22.922-51.2-51.2s22.924-51.2 51.2-51.2v102.4zM972.8 89.6c28.278 0 51.2 22.922 51.2 51.2s-22.922 51.2-51.2 51.2v-102.4zM51.2 396.8h921.599v102.4h-921.599v-102.4zM51.2 703.999h921.599v102.4h-921.599v-102.4zM51.2 89.6h921.599v102.4h-921.599v-102.4z" />
<glyph unicode="&#xe90f;" glyph-name="home" d="M91.638 587.636l-28.576 36.741c-11.338-8.818-17.969-22.377-17.969-36.741h46.546zM510.546 913.454l28.574 36.741c-16.808 13.073-40.341 13.073-57.148 0l28.574-36.741zM929.454 587.636h46.546c0 14.364-6.633 27.923-17.972 36.741l-28.574-36.741zM91.638 75.637v0zM324.364-17.454c0-25.707 20.84-46.546 46.546-46.546s46.546 20.839 46.546 46.546h-93.090zM370.91 448v46.546c-25.706 0-46.546-20.839-46.546-46.546h46.546zM650.182 448h46.546c0 25.707-20.839 46.546-46.546 46.546v-46.546zM603.636-17.454c0-25.707 20.839-46.546 46.546-46.546s46.546 20.839 46.546 46.546h-93.090zM120.214 550.896l418.906 325.818-57.148 73.481-418.911-325.818 57.153-73.481zM481.972 876.714l418.908-325.818 57.148 73.481-418.908 325.818-57.148-73.481zM882.909 587.636v-511.999h93.090v511.999h-93.090zM882.909 75.637c0-12.344-4.906-24.185-13.633-32.913l65.824-65.824c26.186 26.186 40.899 61.701 40.899 98.737h-93.090zM869.276 42.725c-8.727-8.727-20.568-13.633-32.913-13.633v-93.090c37.036 0 72.551 14.713 98.737 40.899l-65.824 65.824zM836.364 29.092h-651.635v-93.090h651.635v93.090zM184.728 29.092c-12.345 0-24.183 4.906-32.913 13.633l-65.825-65.824c26.187-26.186 61.704-40.899 98.738-40.899v93.090zM151.815 42.725c-8.728 8.727-13.633 20.568-13.633 32.913h-93.090c0-37.036 14.712-72.551 40.898-98.737l65.825 65.824zM138.183 75.637v511.999h-93.090v-511.999h93.090zM417.456-17.454v465.454h-93.090v-465.454h93.090zM370.91 401.454h279.272v93.090h-279.272v-93.090zM603.636 448v-465.454h93.090v465.454h-93.090z" />
<glyph unicode="&#xe910;" glyph-name="close" d="M1002.579 835.136c28.562 28.565 28.562 74.875 0 103.44s-74.877 28.563-103.438 0l103.438-103.44zM21.424 60.861c-28.563-28.562-28.563-74.877 0-103.438s74.875-28.562 103.44 0l-103.44 103.438zM124.864 938.576c-28.565 28.563-74.875 28.563-103.44 0s-28.563-74.875 0-103.44l103.44 103.44zM899.139-42.579c28.562-28.562 74.877-28.562 103.438 0s28.562 74.877 0 103.438l-103.438-103.438zM899.139 938.576l-877.715-877.715 103.44-103.438 877.715 877.715-103.438 103.44zM21.424 835.136l877.715-877.715 103.438 103.438-877.715 877.715-103.44-103.44z" />
<glyph unicode="&#xe911;" glyph-name="arrow-right" d="M64.111 512.11c-35.408 0-64.112-28.704-64.112-64.112s28.704-64.115 64.112-64.115v128.227zM959.89 447.999l45.331-45.335c25.038 25.038 25.038 65.631 0 90.669l-45.331-45.334zM557.337 941.221c-25.038 25.038-65.634 25.038-90.672 0s-25.038-65.631 0-90.669l90.672 90.669zM466.665 45.442c-25.038-25.030-25.038-65.625 0-90.663s65.633-25.038 90.672 0l-90.672 90.663zM64.111 383.884h895.78v128.227h-895.78v-128.227zM466.665 850.554l447.886-447.889 90.67 90.669-447.886 447.889-90.672-90.669zM914.552 493.332l-447.886-447.892 90.672-90.663 447.886 447.886-90.67 90.669z" />
<glyph unicode="&#xe912;" glyph-name="arrow-left" d="M959.887 383.882c35.403 0 64.112 28.709 64.112 64.115s-28.709 64.112-64.112 64.112v-128.227zM64.111 447.997l-45.334 45.334c-25.038-25.036-25.038-65.629 0-90.669l45.334 45.335zM466.663-45.221c25.038-25.038 65.632-25.038 90.672 0 25.030 25.038 25.030 65.632 0 90.663l-90.672-90.663zM557.335 850.551c25.030 25.038 25.030 65.631 0 90.669-25.038 25.038-65.634 25.038-90.672 0l90.672-90.669zM959.887 512.109h-895.778v-128.227h895.778v128.227zM557.335 45.442l-447.89 447.89-90.669-90.669 447.886-447.884 90.672 90.663zM109.445 402.663l447.89 447.887-90.672 90.669-447.886-447.887 90.669-90.669z" />
<glyph unicode="&#xe913;" glyph-name="list" d="M307.2 806.4c-28.277 0-51.199-22.922-51.199-51.2s22.922-51.199 51.199-51.199v102.399zM972.796 703.999c28.28 0 51.204 22.922 51.204 51.199s-22.923 51.2-51.204 51.2v-102.399zM307.2 499.199c-28.277 0-51.199-22.923-51.199-51.199s22.922-51.199 51.199-51.199v102.397zM972.796 396.801c28.28 0 51.204 22.923 51.204 51.199s-22.923 51.199-51.204 51.199v-102.397zM307.2 192.003c-28.277 0-51.199-22.923-51.199-51.204 0-28.275 22.922-51.199 51.199-51.199v102.401zM972.796 89.6c28.28 0 51.204 22.923 51.204 51.199 0 28.28-22.923 51.204-51.204 51.204v-102.401zM51.2 806.4c-28.277 0-51.2-22.922-51.2-51.2s22.923-51.199 51.2-51.199v102.399zM51.712 703.999c28.277 0 51.199 22.922 51.199 51.199s-22.922 51.2-51.199 51.2v-102.399zM51.2 499.199c-28.277 0-51.2-22.923-51.2-51.199s22.923-51.199 51.2-51.199v102.397zM51.712 396.801c28.277 0 51.199 22.923 51.199 51.199s-22.922 51.199-51.199 51.199v-102.397zM51.2 192.003c-28.277 0-51.2-22.923-51.2-51.204 0-28.275 22.923-51.199 51.2-51.199v102.401zM51.712 89.6c28.277 0 51.199 22.923 51.199 51.199 0 28.28-22.922 51.204-51.199 51.204v-102.401zM307.2 703.999h665.597v102.399h-665.597v-102.399zM307.2 396.801h665.597v102.397h-665.597v-102.397zM307.2 89.6h665.597v102.401h-665.597v-102.401zM51.2 703.999h0.512v102.399h-0.512v-102.399zM51.2 396.801h0.512v102.397h-0.512v-102.397zM51.2 89.6h0.512v102.401h-0.512v-102.401z" />
<glyph unicode="&#xe914;" glyph-name="slider-chevron-right" d="M746.348-64c-11.013 0-22.126 4.243-30.512 12.629l-468.796 468.796c-16.873 16.873-16.873 44.253 0 61.125l468.796 468.796c16.873 16.873 44.253 16.873 61.125 0s16.873-44.253 0-61.125l-438.283-438.182 438.283-438.283c16.873-16.873 16.873-44.253 0-61.125-8.487-8.386-19.601-12.629-30.613-12.629z" />
<glyph unicode="&#xe915;" glyph-name="chevron-down" d="M512 161.677c-15.514 0-31.029 5.944-42.916 17.731l-451.328 451.328c-23.675 23.675-23.675 62.158 0 85.833s62.158 23.675 85.833 0l408.411-408.411 408.411 408.411c23.675 23.675 62.158 23.675 85.833 0s23.675-62.158 0-85.833l-451.328-451.328c-11.888-11.888-27.402-17.731-42.916-17.731z" />
<glyph unicode="&#xe916;" glyph-name="slider-chevron-right1" d="M277.575-64c-11.012 0-22.124 4.243-30.509 12.628-16.871 16.871-16.871 44.248 0 61.119l438.139 438.24-438.139 438.24c-16.871 16.871-16.871 44.248 0 61.119s44.248 16.871 61.119 0l468.749-468.749c16.871-16.871 16.871-44.248 0-61.119l-468.749-468.749c-8.486-8.486-19.599-12.729-30.61-12.729z" />
<glyph unicode="&#xe917;" glyph-name="location" d="M889.705 531.935v0zM512-13.639l-27.935-41.9c16.916-11.281 38.954-11.281 55.87 0l-27.935 41.9zM134.295 531.935v0zM512 909.639v0zM839.344 531.935c0-126.644-82.627-250.758-175.053-348.316-45.179-47.691-90.533-86.761-124.647-113.926-17.016-13.552-31.133-24.057-40.899-31.112-4.881-3.525-8.667-6.179-11.176-7.917-1.254-0.871-2.189-1.511-2.781-1.908-0.296-0.202-0.506-0.342-0.627-0.428-0.061-0.040-0.099-0.066-0.115-0.076-0.008-0.005-0.011-0.005-0.008-0.005s0.009 0.005 0.010 0.005 0.018 0.015 27.953-41.89c27.935-41.9 27.945-41.895 27.96-41.885 0.010 0.005 0.026 0.015 0.035 0.026 0.026 0.015 0.060 0.040 0.095 0.066 0.076 0.050 0.176 0.116 0.297 0.197 0.242 0.161 0.574 0.388 0.992 0.67 0.836 0.57 2.024 1.38 3.535 2.428 3.022 2.095 7.352 5.136 12.802 9.070 10.888 7.861 26.278 19.323 44.669 33.968 36.708 29.229 85.779 71.472 135.026 123.449 96.426 101.788 202.651 250.458 202.651 417.588h-100.721zM512-13.639c27.935 41.906 27.945 41.895 27.955 41.89 0 0 0.005-0.005 0.005-0.005 0.005 0 0.005 0-0.005 0.005-0.015 0.010-0.055 0.035-0.116 0.076-0.121 0.086-0.332 0.226-0.63 0.428-0.589 0.397-1.526 1.038-2.78 1.908-2.508 1.737-6.295 4.392-11.175 7.917-9.765 7.055-23.884 17.56-40.9 31.112-34.113 27.164-79.466 66.234-124.647 113.926-92.423 97.559-175.051 221.672-175.051 348.316h-100.721c0-167.129 106.223-315.798 202.653-417.588 49.244-51.978 98.318-94.22 135.024-123.449 18.392-14.645 33.782-26.107 44.671-33.968 5.447-3.933 9.776-6.975 12.8-9.070 1.513-1.048 2.699-1.858 3.536-2.428 0.419-0.282 0.75-0.509 0.992-0.67 0.121-0.081 0.219-0.146 0.295-0.197 0.037-0.026 0.070-0.050 0.096-0.066 0.013-0.010 0.029-0.020 0.035-0.026 0.014-0.010 0.027-0.015 27.961 41.885zM184.656 531.935c0 86.817 34.488 170.078 95.877 231.467l-71.221 71.221c-80.278-80.278-125.377-189.158-125.377-302.688h100.721zM280.533 763.402c61.389 61.389 144.65 95.877 231.467 95.877v100.721c-113.53 0-222.41-45.099-302.688-125.377l71.221-71.221zM512 859.279c86.817 0 170.078-34.488 231.467-95.877l71.22 71.221c-80.28 80.278-189.159 125.377-302.687 125.377v-100.721zM743.467 763.402c61.39-61.389 95.877-144.65 95.877-231.467h100.721c0 113.53-45.098 222.41-125.378 302.688l-71.22-71.221zM587.541 531.935c0-41.721-33.822-75.541-75.541-75.541v-100.724c97.347 0 176.262 78.921 176.262 176.265h-100.721zM512 456.394c-41.721 0-75.541 33.82-75.541 75.541h-100.721c0-97.344 78.915-176.265 176.262-176.265v100.724zM436.459 531.935c0 41.721 33.82 75.541 75.541 75.541v100.721c-97.347 0-176.262-78.915-176.262-176.262h100.721zM512 607.476c41.719 0 75.541-33.82 75.541-75.541h100.721c0 97.347-78.915 176.262-176.262 176.262v-100.721z" />
<glyph unicode="&#xe918;" glyph-name="header-chevron" horiz-adv-x="964" d="M482 267.287c-15.4 0-30.8 5.9-42.6 17.6l-240.9 241c-23.5 23.5-23.5 61.7 0 85.2s61.7 23.5 85.2 0l198.3-198.4 198.3 198.3c23.5 23.5 61.7 23.5 85.2 0s23.5-61.7 0-85.2l-240.9-240.9c-11.8-11.7-27.2-17.6-42.6-17.6z" />
<glyph unicode="&#xe919;" glyph-name="chevron-right" d="M384.050 149.338c-10.9 0-21.8 4.2-30.2 12.5-16.7 16.7-16.7 43.7 0 60.3l225.9 225.9-225.9 225.8c-16.7 16.7-16.7 43.7 0 60.3 16.7 16.7 43.7 16.7 60.3 0l256-256c16.7-16.7 16.7-43.7 0-60.3l-256-256c-8.3-8.3-19.2-12.5-30.1-12.5z" />
<glyph unicode="&#xe91a;" glyph-name="faq" d="M332.645 603.082c-8.531-24.25 4.212-50.823 28.462-59.353s50.823 4.212 59.353 28.462l-87.815 30.891zM647.913 541.091l-46.545 0.069v-0.069h46.545zM493.559 445.612c-24.39-8.131-37.568-34.49-29.439-58.875 8.131-24.39 34.489-37.567 58.874-29.44l-29.435 88.315zM512 261.818c-25.707 0-46.545-20.838-46.545-46.545s20.838-46.545 46.545-46.545v93.091zM512.465 168.727c25.707 0 46.545 20.838 46.545 46.545s-20.838 46.545-46.545 46.545v-93.091zM930.909 448c0-231.359-187.55-418.909-418.909-418.909v-93.091c282.768 0 512 229.232 512 512h-93.091zM512 29.091c-231.357 0-418.909 187.55-418.909 418.909h-93.091c0-282.768 229.23-512 512-512v93.091zM93.091 448c0 231.357 187.552 418.909 418.909 418.909v93.091c-282.77 0-512-229.23-512-512h93.091zM512 866.909c231.359 0 418.909-187.552 418.909-418.909h93.091c0 282.77-229.232 512-512 512v-93.091zM420.46 572.191c7.296 20.738 21.695 38.226 40.649 49.365l-47.168 80.257c-37.907-22.278-66.706-57.253-81.296-98.73l87.815-30.891zM461.109 621.555c18.951 11.139 41.237 15.211 62.904 11.494l15.737 91.751c-43.334 7.433-87.902-0.71-125.809-22.988l47.168-80.257zM524.013 633.050c21.667-3.717 41.323-14.982 55.482-31.8l71.215 59.951c-28.314 33.637-67.621 56.168-110.96 63.601l-15.737-91.751zM579.496 601.25c14.154-16.818 21.904-38.105 21.872-60.089l93.091-0.139c0.065 43.969-15.434 86.541-43.748 120.179l-71.215-59.951zM601.367 541.091c0-21.836-16.994-44.601-49.091-65.997-14.634-9.756-29.598-17.273-41.086-22.379-5.679-2.523-10.347-4.385-13.484-5.581-1.564-0.596-2.737-1.024-3.454-1.28-0.358-0.126-0.6-0.209-0.721-0.251-0.056-0.019-0.084-0.028-0.084-0.028 0.005 0 0.014 0.005 0.033 0.009 0.009 0.005 0.019 0.009 0.033 0.014 0.005 0 0.019 0.005 0.019 0.005 0.014 0.005 0.028 0.009 14.746-44.148s14.732-44.153 14.746-44.148c0.005 0.005 0.019 0.009 0.033 0.009 0.019 0.009 0.047 0.019 0.070 0.023 0.051 0.019 0.112 0.042 0.182 0.065 0.14 0.047 0.312 0.102 0.517 0.172 0.41 0.144 0.95 0.33 1.615 0.568 1.331 0.475 3.156 1.136 5.409 1.997 4.496 1.713 10.738 4.212 18.153 7.508 14.694 6.53 34.639 16.468 54.914 29.985 37.72 25.149 90.545 72.201 90.545 143.458h-93.091zM512 168.727h0.465v93.091h-0.465v-93.091z" />
<glyph unicode="&#xe91b;" glyph-name="phone" horiz-adv-x="1040" d="M844.644-64c-4.109 0-8.217 0.224-12.281 0.581-144.382 15.675-284.432 65.514-405.636 144.159-112.317 71.365-209.718 168.766-281.351 281.485-78.689 121.428-128.483 262.103-143.801 406.396-1.786 19.248 0.402 37.737 6.387 55.511 6.029 17.819 15.452 33.807 28.046 47.606 12.55 13.755 27.599 24.607 44.748 32.155 17.059 7.547 35.191 11.388 53.948 11.433h134.066c31.529 1.519 63.594-11.164 88.246-32.423 24.652-21.168 40.773-50.598 45.329-82.842 5.225-39.835 14.961-78.778 28.895-116.068 8.977-23.982 10.942-49.928 5.582-74.982-5.404-25.143-17.775-48.053-35.816-66.273l-32.199-32.199c52.474-82.307 122.41-152.286 204.761-204.806l32.065 32.020c18.444 18.221 41.354 30.636 66.408 35.996 25.143 5.27 51.090 3.349 75.027-5.582 37.201-13.934 76.099-23.625 115.711-28.85 33.003-4.644 62.656-21.035 83.959-46.087 21.124-24.919 32.377-56.628 31.663-89.317v-133.441c0.134-18.444-3.617-36.71-11.209-54.037-7.592-17.238-18.354-32.333-32.065-44.971-13.845-12.639-30.323-22.374-47.83-28.269-13.799-4.779-28.135-7.19-42.649-7.19zM269.661 826.006c-0.134 0-0.313 0-0.446 0h-134.423c-6.208 0-12.281-1.295-17.953-3.796-5.717-2.546-10.718-6.163-14.916-10.763-4.243-4.644-7.369-9.959-9.379-15.899-1.965-5.85-2.679-12.013-2.144-18.176 13.799-129.778 58.816-256.878 130.135-366.962 64.845-102.045 152.733-189.934 254.421-254.555 109.905-71.32 236.469-116.292 366.247-130.403 5.449-0.402 11.567 0.268 17.462 2.233 5.984 2.054 11.477 5.27 16.032 9.468 4.511 4.154 8.172 9.29 10.718 15.094 2.457 5.627 3.706 11.701 3.662 17.819v134.289c0 0.402 0 0.803 0 1.162 0.313 10.896-3.439 21.525-10.495 29.877-7.101 8.396-16.97 13.845-27.868 15.362-45.909 6.074-91.462 17.462-134.914 33.718-8.039 2.992-16.702 3.617-25.143 1.876-8.262-1.741-15.899-5.895-22.017-11.969l-56.583-56.539c-14.246-14.156-36.263-17.149-53.636-7.235-118.748 67.568-217.176 165.997-284.7 284.7-9.959 17.462-6.966 39.434 7.235 53.636l56.717 56.717c5.85 5.895 9.959 13.577 11.745 21.972 1.786 8.306 1.116 16.97-1.876 25.054-16.3 43.676-27.644 89.184-33.718 135.316-1.474 10.317-6.833 20.141-15.050 27.197-8.083 7.012-18.399 10.807-29.117 10.807zM799.717 515.627c-20.989 0-39.657 14.827-43.765 36.174-6.788 34.968-23.714 66.81-48.99 92.087-25.232 25.232-57.118 42.203-92.131 49.036-24.205 4.689-40.014 28.18-35.28 52.385 4.644 24.205 28.225 40.193 52.385 35.28 52.519-10.226 100.259-35.637 138.174-73.509 37.915-37.96 63.326-85.745 73.509-138.219 4.689-24.205-11.12-47.651-35.325-52.34-2.903-0.625-5.761-0.893-8.574-0.893zM978.352 516.074c-22.463 0-41.8 16.837-44.346 39.702-8.977 80.207-45.418 155.814-102.537 212.889-57.074 57.029-132.726 93.382-213.023 102.313-24.517 2.724-42.158 24.786-39.478 49.303 2.768 24.517 25.277 42.203 49.303 39.434 100.348-11.164 194.891-56.583 266.256-127.903 71.454-71.276 116.961-165.774 128.216-266.078 2.768-24.517-14.916-46.579-39.434-49.348-1.652-0.224-3.305-0.313-4.957-0.313z" />
<glyph unicode="&#xe91c;" glyph-name="globe" d="M698.182 448l46.536-0.968c0.014 0.647 0.014 1.289 0 1.936l-46.536-0.968zM325.818 448l-46.535 0.968c-0.013-0.647-0.013-1.289 0-1.936l46.535 0.968zM930.909 448c0-231.359-187.55-418.909-418.909-418.909v-93.091c282.768 0 512 229.232 512 512h-93.091zM512 29.091c-231.357 0-418.909 187.55-418.909 418.909h-93.091c0-282.768 229.23-512 512-512v93.091zM93.091 448c0 231.357 187.552 418.909 418.909 418.909v93.091c-282.77 0-512-229.23-512-512h93.091zM512 866.909c231.359 0 418.909-187.552 418.909-418.909h93.091c0 282.77-229.232 512-512 512v-93.091zM46.545 401.455h930.909v93.091h-930.909v-93.091zM477.635 882.063c108.814-119.128 170.65-273.724 174.010-435.032l93.072 1.936c-3.831 183.871-74.319 360.089-198.353 495.878l-68.729-62.783zM651.646 448.968c-3.361-161.308-65.196-315.904-174.010-435.032l68.729-62.781c124.034 135.787 194.523 312.008 198.353 495.877l-93.072 1.936zM546.365 13.936c-108.812 119.128-170.651 273.725-174.011 435.032l-93.070-1.936c3.83-183.869 74.318-360.090 198.353-495.877l68.729 62.781zM372.353 447.032c3.361 161.307 65.199 315.904 174.011 435.032l-68.729 62.783c-124.035-135.789-194.522-312.007-198.353-495.878l93.070-1.936z" />
<glyph unicode="&#xe91d;" glyph-name="filter" d="M596.040 20.48c-5.12 0-15.36 0-20.48 5.12l-168.96 81.92c-15.36 5.12-25.6 20.48-25.6 35.84v261.12l-332.8 399.36c-10.24 10.24-10.24 30.72-5.12 46.080s20.48 25.6 40.96 25.6h855.040c15.36 0 30.72-10.24 40.96-25.6s0-35.84-10.24-46.080l-332.8-389.12v-348.16c0-15.36-5.12-30.72-20.48-35.84-5.12-10.24-15.36-10.24-20.48-10.24zM468.040 174.080l87.040-40.96v296.96c0 10.24 5.12 20.48 10.24 25.6l281.6 332.8h-670.72l281.6-332.8c5.12-10.24 10.24-15.36 10.24-25.6v-256z" />
<glyph unicode="&#xe91e;" glyph-name="filter-line" d="M204.861 499.292c-28.328 0-51.292-22.965-51.292-51.292 0-28.33 22.965-51.292 51.292-51.292v102.584zM819.138 396.708c28.33 0 51.292 22.962 51.292 51.292 0 28.328-22.962 51.292-51.292 51.292v-102.584zM51.292 806.431c-28.328 0-51.292-22.965-51.292-51.292s22.965-51.292 51.292-51.292v102.584zM972.708 703.847c28.33 0 51.292 22.965 51.292 51.292s-22.962 51.292-51.292 51.292v-102.584zM358.431 192.154c-28.328 0-51.292-22.962-51.292-51.292s22.965-51.292 51.292-51.292v102.584zM665.569 89.569c28.33 0 51.292 22.962 51.292 51.292s-22.962 51.292-51.292 51.292v-102.584zM204.861 396.708h614.277v102.584h-614.277v-102.584zM51.292 703.847h921.416v102.584h-921.416v-102.584zM358.431 89.569h307.139v102.584h-307.139v-102.584z" />
<glyph unicode="&#xe91f;" glyph-name="navigation" d="M534.254-64c0 0 0 0 0 0-23.401 0-40.95 17.551-46.802 35.1l-87.751 362.705-362.705 87.751c-17.551 5.85-35.1 23.401-35.1 46.802s11.699 40.95 29.25 46.802l924.311 438.754c17.551 11.699 40.95 5.85 52.651-11.699 11.699-11.699 17.551-35.1 11.699-52.651l-438.754-924.311c-11.699-23.401-23.401-29.25-46.802-29.25zM194.95 485.906l257.402-64.351c17.551-5.85 29.25-17.551 35.1-35.1l64.351-257.402 321.753 678.608-678.608-321.753z" />
<glyph unicode="&#xe920;" glyph-name="report" d="M447.346 874.846c19.736 11.112 42.004 16.95 64.654 16.95s44.917-5.837 64.654-16.95c19.736-11.112 36.276-27.123 48.022-46.488l0.128-0.209 372.426-621.75c11.509-19.926 17.597-42.518 17.659-65.532 0.066-23.010-5.895-45.636-17.291-65.629s-27.828-36.649-47.661-48.321c-19.83-11.667-42.372-17.94-65.382-18.195l-0.483-0.004-744.623 0.004c-23.010 0.254-45.552 6.528-65.384 18.195-19.833 11.673-36.263 28.33-47.659 48.321s-17.358 42.619-17.293 65.629c0.065 23.014 6.153 45.607 17.66 65.532l0.358 0.606 372.071 621.143 37.684-22.573-37.558 22.782c11.746 19.365 28.285 35.376 48.021 46.488zM474.494 782.881l-371.785-620.668c-3.741-6.58-5.72-14.017-5.742-21.591-0.022-7.67 1.965-15.211 5.764-21.877s9.275-12.217 15.886-16.104c6.553-3.857 13.992-5.948 21.593-6.066h743.578c7.599 0.119 15.040 2.209 21.595 6.066 6.611 3.888 12.085 9.44 15.884 16.104s5.785 14.206 5.764 21.877c-0.018 7.574-1.999 15.010-5.737 21.591l-371.79 620.668c-3.909 6.416-9.405 11.722-15.955 15.409-6.576 3.704-14 5.65-21.551 5.65-7.546 0-14.971-1.946-21.551-5.65-6.55-3.687-12.041-8.992-15.955-15.409zM512 623.712c24.261 0 43.928-19.668 43.928-43.928v-175.712c0-24.261-19.667-43.928-43.928-43.928s-43.928 19.667-43.928 43.928v175.712c0 24.26 19.667 43.928 43.928 43.928zM512 272.288c-24.261 0-43.928-19.667-43.928-43.928s19.667-43.928 43.928-43.928h0.44c24.261 0 43.928 19.667 43.928 43.928s-19.667 43.928-43.928 43.928h-0.44z" />
<glyph unicode="&#xe921;" glyph-name="map" d="M42.745 703.956l-21.207 37.113c-13.318-7.611-21.537-21.773-21.537-37.113h42.745zM42.745 21.407h-42.745c0-15.239 8.112-29.322 21.29-36.971s29.432-7.705 42.662-0.143l-21.207 37.114zM682.635 21.407l-19.115-38.235c12.783-6.389 27.914-5.969 40.323 1.121l-21.208 37.114zM981.255 192.043l21.203-37.114c13.32 7.612 21.541 21.771 21.541 37.114h-42.745zM981.255 874.594h42.745c0 15.237-8.114 29.322-21.29 36.971-13.182 7.648-29.435 7.703-42.663 0.142l21.208-37.113zM341.361 874.594l19.117 38.232c-12.783 6.392-27.914 5.972-40.323-1.119l21.207-37.113zM0 703.956v-682.549h85.49v682.549h-85.49zM63.952-15.707l298.616 170.636-42.415 74.228-298.617-170.641 42.415-74.223zM322.245 153.808l341.276-170.636 38.235 76.464-341.279 170.636-38.233-76.464zM703.845-15.707l298.615 170.636-42.412 74.228-298.615-170.641 42.412-74.223zM1024 192.043v682.551h-85.49v-682.551h85.49zM960.047 911.708l-298.615-170.638 42.412-74.226 298.615 170.638-42.412 74.226zM701.756 742.189l-341.279 170.638-38.233-76.464 341.276-170.637 38.235 76.464zM320.154 911.708l-298.617-170.638 42.415-74.226 298.616 170.638-42.415 74.226zM298.616 874.594v-682.551h85.49v682.551h-85.49zM639.891 703.956v-682.549h85.49v682.549h-85.49z" />
<glyph unicode="&#xe922;" glyph-name="check-circle" d="M512 960c-282.624 0-512-229.376-512-512s229.376-512 512-512 512 229.376 512 512-229.376 512-512 512zM512 38.401c-225.792 0-409.599 183.807-409.599 409.599s183.807 409.599 409.599 409.599 409.599-183.807 409.599-409.599-183.807-409.599-409.599-409.599zM747.008 674.304l-337.407-337.407-132.608 132.096-72.192-72.192 204.8-204.8 409.599 409.599z" />
<glyph unicode="&#xe923;" glyph-name="log-out" d="M358.432-64c28.328 0 51.292 22.962 51.292 51.292s-22.965 51.292-51.292 51.292v-102.584zM51.293 89.674v0zM153.674 908.708v0zM358.432 857.416c28.328 0 51.292 22.965 51.292 51.292s-22.965 51.292-51.292 51.292v-102.584zM680.491 228.323c-20.031-20.031-20.031-52.509 0-72.54s52.509-20.031 72.54 0l-72.54 72.54zM972.709 448l36.266-36.266c20.031 20.031 20.031 52.505 0 72.535l-36.266-36.269zM753.032 740.218c-20.031 20.031-52.509 20.031-72.54 0s-20.031-52.507 0-72.539l72.54 72.539zM358.432 499.292c-28.328 0-51.292-22.965-51.292-51.292 0-28.33 22.965-51.292 51.292-51.292v102.584zM358.432 38.584h-204.758v-102.584h204.758v102.584zM153.674 38.584c-13.549 0-26.543 5.381-36.125 14.963l-72.539-72.54c28.818-28.816 67.906-45.008 108.662-45.008v102.584zM117.549 53.548c-9.581 9.582-14.963 22.575-14.963 36.126h-102.584c0-40.757 16.191-79.844 45.009-108.666l72.539 72.54zM102.586 89.674v716.654h-102.584v-716.654h102.584zM102.586 806.328c0 13.55 5.382 26.543 14.963 36.125l-72.539 72.539c-28.818-28.818-45.009-67.906-45.009-108.662h102.584zM117.549 842.452c9.581 9.581 22.575 14.963 36.125 14.963v102.584c-40.757 0-79.844-16.191-108.662-45.009l72.539-72.539zM153.674 857.416h204.758v102.584h-204.758v-102.584zM753.032 155.782l255.945 255.951-72.534 72.535-255.951-255.946 72.54-72.54zM1008.975 484.269l-255.945 255.95-72.54-72.539 255.951-255.946 72.534 72.535zM972.709 499.292h-614.277v-102.584h614.277v102.584z" />
<glyph unicode="&#xe924;" glyph-name="briefcase" d="M651.636 29.091c0-25.707 20.839-46.546 46.546-46.546s46.546 20.839 46.546 46.546h-93.091zM605.091 866.909v0zM418.909 866.909v0zM325.818 773.819v0zM279.273 29.091c0-25.707 20.84-46.546 46.546-46.546s46.546 20.839 46.546 46.546h-93.091zM139.636 634.182h744.728v93.091h-744.728v-93.091zM884.363 634.182c25.707 0 46.546-20.839 46.546-46.546h93.091c0 77.119-62.516 139.636-139.636 139.636v-93.091zM930.909 587.636v-465.455h93.091v465.455h-93.091zM930.909 122.181c0-25.707-20.839-46.546-46.546-46.546v-93.091c77.121 0 139.636 62.516 139.636 139.636h-93.091zM884.363 75.636h-744.728v-93.091h744.728v93.091zM139.636 75.636c-25.706 0-46.546 20.839-46.546 46.546h-93.091c0-77.121 62.518-139.636 139.636-139.636v93.091zM93.091 122.181v465.455h-93.091v-465.455h93.091zM93.091 587.636c0 25.706 20.84 46.546 46.546 46.546v93.091c-77.119 0-139.636-62.518-139.636-139.636h93.091zM744.727 29.091v744.728h-93.091v-744.728h93.091zM744.727 773.819c0 37.034-14.713 72.551-40.899 98.738l-65.824-65.825c8.727-8.729 13.633-20.568 13.633-32.913h93.091zM703.828 872.556c-26.186 26.187-61.705 40.898-98.737 40.898v-93.091c12.344 0 24.185-4.904 32.913-13.633l65.824 65.825zM605.091 913.455h-186.182v-93.091h186.182v93.091zM418.909 913.455c-37.034 0-72.551-14.712-98.738-40.898l65.825-65.825c8.729 8.728 20.568 13.633 32.913 13.633v93.091zM320.171 872.556c-26.187-26.187-40.898-61.704-40.898-98.738h93.091c0 12.345 4.904 24.183 13.633 32.913l-65.825 65.825zM279.273 773.819v-744.728h93.091v744.728h-93.091z" />
<glyph unicode="&#xe925;" glyph-name="plane" d="M965.202 447.302c-0.026 8.585-2.43 16.993-6.942 24.294s-10.959 13.215-18.625 17.076l-284.468 142.235v185.928c0 37.97-15.084 74.384-41.934 101.233s-63.262 41.932-101.23 41.932c-37.973 0-74.385-15.083-101.235-41.932s-41.932-63.263-41.932-101.233v-185.928l-284.47-142.235c-7.666-3.861-14.112-9.774-18.625-17.076s-6.915-15.709-6.941-24.294v-154.782c-0.063-7.575 1.725-15.046 5.209-21.769s8.557-12.495 14.779-16.812c6.187-4.239 13.308-6.92 20.754-7.809s14.998 0.035 22.010 2.694l247.284 92.966v-173.382l-84.597-27.886c-9.232-3.12-17.251-9.059-22.923-16.984-5.672-7.922-8.71-17.432-8.684-27.176v-113.881c0.025-6.148 1.271-12.234 3.665-17.895 2.394-5.666 5.888-10.803 10.279-15.106 8.658-8.585 20.343-13.428 32.537-13.479h426.239c12.329 0 24.151 4.898 32.867 13.614 8.72 8.715 13.614 20.542 13.614 32.867v116.207c0.026 9.744-3.010 19.249-8.681 27.176-5.675 7.922-13.692 13.865-22.924 16.984l-85.061 25.561v172.917l247.284-92.966c7.011-2.659 14.559-3.583 22.009-2.694 7.444 0.889 14.568 3.57 20.755 7.809 6.221 4.312 11.293 10.087 14.776 16.812 3.484 6.72 5.271 14.195 5.21 21.765v155.252zM625.416 451.953c-7.076 2.737-14.711 3.704-22.246 2.816-7.536-0.893-14.737-3.614-20.98-7.931-6.156-4.273-11.188-9.97-14.672-16.607-3.48-6.633-5.302-14.013-5.315-21.51v-271.453c0.009-9.805 3.115-19.353 8.872-27.284 5.761-7.931 13.883-13.835 23.201-16.877l84.134-27.886v-36.256h-333.278v36.256l84.132 27.886c9.319 3.041 17.44 8.946 23.201 16.877 5.757 7.931 8.863 17.479 8.872 27.284v271.453c-0.013 7.497-1.835 14.876-5.319 21.51-3.48 6.638-8.512 12.334-14.668 16.607-6.242 4.317-13.444 7.037-20.98 7.931-7.536 0.889-15.176-0.078-22.246-2.816l-246.822-92.966v59.496l284.006 142.236c7.753 3.796 14.295 9.679 18.889 16.987 4.599 7.306 7.072 15.75 7.141 24.382v213.353c0 13.314 5.288 26.083 14.702 35.497s22.181 14.703 35.496 14.703c13.314 0 26.086-5.288 35.5-14.703s14.702-22.184 14.702-35.497v-213.353c0.069-8.633 2.542-17.075 7.137-24.382 4.599-7.309 11.141-13.191 18.893-16.987l284.004-142.236v-59.032l-246.356 92.502z" />
<glyph unicode="&#xe926;" glyph-name="heart" d="M950.857 619.429c0 160.571-108.571 194.286-200 194.286-85.143 0-181.143-92-210.857-127.429-13.714-16.571-42.286-16.571-56 0-29.714 35.429-125.714 127.429-210.857 127.429-91.429 0-200-33.714-200-194.286 0-104.571 105.714-201.714 106.857-202.857l332-320 331.429 319.429c1.714 1.714 107.429 98.857 107.429 203.429zM1024 619.429c0-137.143-125.714-252-130.857-257.143l-356-342.857c-6.857-6.857-16-10.286-25.143-10.286s-18.286 3.429-25.143 10.286l-356.571 344c-4.571 4-130.286 118.857-130.286 256 0 167.429 102.286 267.429 273.143 267.429 100 0 193.714-78.857 238.857-123.429 45.143 44.571 138.857 123.429 238.857 123.429 170.857 0 273.143-100 273.143-267.429z" />
<glyph unicode="&#xe927;" glyph-name="Business" d="M388.414 959.992c-18.36 0-37.427-6.359-50.848-19.774s-19.774-32.482-19.774-50.848v-35.307h-317.79v-706.205h395.474c-4.587 22.6-7.065 46.258-7.065 70.624h-317.79v231.636c20.832-12.002 44.841-19.774 70.624-19.774h318.148c19.767 26.839 43.779 50.848 70.624 70.624h-388.766c-42.016 0-70.624 28.6-70.624 70.624v211.863h776.821v-211.863c0-5.653-0.352-10.946-1.413-15.892 25.425-7.771 49.437-18.36 72.032-31.426v329.797h-317.79v35.307c0 18.36-6.359 37.427-19.774 50.848s-32.482 19.774-50.848 19.774h-141.239zM388.414 889.37h141.239v-35.307h-141.239v35.307zM211.868 642.198v-105.932h70.624v105.932h-70.624zM635.587 642.198v-86.865c22.996 7.19 46.655 12.037 70.624 14.479v72.386h-70.624zM741.518 500.959c-155.723 0-282.479-126.757-282.479-282.479s126.757-282.479 282.479-282.479c155.723 0 282.479 126.757 282.479 282.479s-126.757 282.479-282.479 282.479zM741.518 430.335c117.227 0 211.863-94.628 211.863-211.863s-94.628-211.863-211.863-211.863c-117.227 0-211.863 94.628-211.863 211.863s94.628 211.863 211.863 211.863zM706.209 395.027v-211.863h176.549v70.624h-105.932v141.239h-70.624z" />
<glyph unicode="&#xe928;" glyph-name="Activities" d="M910.978 697.331c-21.183-0.069-41.793-6.881-58.843-19.449l-87.273 39.896 96.247 43.886c15.057-9.139 32.261-14.129 49.869-14.463 19.731 0 39.014 5.85 55.417 16.809 16.398 10.96 29.184 26.537 36.734 44.762s9.523 38.28 5.674 57.627c-3.849 19.348-13.345 37.12-27.294 51.069s-31.721 23.448-51.070 27.297c-19.349 3.848-39.401 1.873-57.628-5.676-18.223-7.549-33.801-20.333-44.763-36.735-10.957-16.402-16.808-35.686-16.808-55.413l-94.255-43.387c-12.879 9.147-27.746 15.104-43.376 17.381s-31.581 0.809-46.531-4.283c-14.955-5.092-28.486-13.663-39.475-25.007-10.994-11.344-19.135-25.136-23.752-40.242-4.622-15.106-5.585-31.092-2.816-46.644 2.765-15.552 9.188-30.223 18.735-42.808 9.551-12.584 21.951-22.721 36.18-29.575 14.234-6.854 29.887-10.23 45.68-9.85 16.067-0.007 31.865 4.114 45.88 11.969l104.727-49.87c2.495-19.017 10.417-36.911 22.821-51.54s28.765-25.37 47.118-30.938c18.353-5.568 37.925-5.726 56.367-0.455s34.97 15.747 47.611 30.174c12.637 14.426 20.848 32.191 23.65 51.165 2.797 18.974 0.070 38.353-7.862 55.816-7.936 17.462-20.736 32.267-36.869 42.64s-34.914 15.875-54.095 15.845zM861.11 398.113c-13.224 0-25.912-5.255-35.263-14.611-9.351-9.351-14.606-22.035-14.606-35.263v-19.447l-73.807 73.807c-12.842 12.921-28.109 23.175-44.926 30.175-16.817 6.996-34.853 10.598-53.071 10.598-18.213 0-36.25-3.603-53.071-10.598-16.817-7-32.084-17.254-44.921-30.175l-34.909-34.909-123.68 124.174c-26.061 25.857-61.284 40.366-97.995 40.366s-71.934-14.509-97.995-40.366l-73.808-73.807v279.274c0 13.226 5.254 25.911 14.606 35.264s22.037 14.606 35.264 14.606h249.351c13.226 0 25.911 5.254 35.264 14.607s14.606 22.037 14.606 35.263c0 13.226-5.254 25.911-14.606 35.263s-22.037 14.607-35.264 14.607h-249.351c-39.679 0-77.733-15.763-105.79-43.82s-43.82-66.111-43.82-105.791v-598.44c0-39.68 15.762-77.736 43.82-105.793s66.111-43.818 105.79-43.818h598.443c39.675 0 77.731 15.76 105.789 43.818s43.818 66.113 43.818 105.793v249.349c0 13.228-5.25 25.912-14.606 35.263-9.351 9.356-22.035 14.611-35.263 14.611zM162.929 49.022c-13.226 0-25.911 5.25-35.264 14.606-9.352 9.351-14.606 22.035-14.606 35.263v178.036l144.623 144.621c7.327 6.982 17.059 10.878 27.179 10.878s19.853-3.896 27.179-10.878l158.087-158.087 213.942-214.44h-521.141zM811.241 98.89c-0.074-9.546-3.221-18.818-8.979-26.433l-224.912 225.913 34.909 34.909c7.289 7.247 17.147 11.315 27.429 11.315 10.277 0 20.14-4.068 27.429-11.315l144.123-145.622v-88.767z" />
<glyph unicode="&#xe929;" glyph-name="Tech--Electronic" d="M611.761 597.591h-199.482c-13.226 0-25.911-5.255-35.263-14.607s-14.607-22.037-14.607-35.263v-199.482c0-13.224 5.255-25.912 14.607-35.263s22.037-14.606 35.263-14.606h199.482c13.224 0 25.912 5.255 35.263 14.606s14.606 22.039 14.606 35.263v199.482c0 13.226-5.255 25.911-14.606 35.263s-22.039 14.607-35.263 14.607zM561.887 398.113h-99.738v99.738h99.738v-99.738zM960.852 398.113c13.224 0 25.912 5.25 35.263 14.606 9.351 9.351 14.606 22.035 14.606 35.263 0 13.224-5.255 25.912-14.606 35.263s-22.039 14.606-35.263 14.606h-99.742v99.74h99.742c13.224 0 25.912 5.254 35.263 14.606s14.606 22.037 14.606 35.264c0 13.226-5.255 25.911-14.606 35.263s-22.039 14.606-35.263 14.606h-108.716c-7.447 20.916-19.456 39.911-35.156 55.61s-34.695 27.707-55.608 35.153v108.717c0 13.226-5.255 25.911-14.611 35.263-9.351 9.352-22.035 14.607-35.263 14.607-13.224 0-25.907-5.254-35.263-14.607-9.351-9.352-14.606-22.037-14.606-35.263v-99.74h-99.742v99.74c0 13.226-5.25 25.911-14.606 35.263-9.351 9.352-22.035 14.607-35.263 14.607-13.224 0-25.912-5.254-35.263-14.607s-14.606-22.037-14.606-35.263v-99.74h-99.74v99.74c0 13.226-5.254 25.911-14.606 35.263s-22.037 14.607-35.264 14.607c-13.226 0-25.911-5.254-35.263-14.607s-14.606-22.037-14.606-35.263v-108.717c-20.916-7.446-39.911-19.455-55.61-35.153s-27.707-34.695-35.153-55.61h-108.717c-13.226 0-25.911-5.254-35.263-14.606s-14.607-22.037-14.607-35.263c0-13.227 5.254-25.911 14.607-35.264s22.037-14.606 35.263-14.606h99.74v-99.74h-99.74c-13.226 0-25.911-5.255-35.263-14.606s-14.607-22.039-14.607-35.263c0-13.228 5.254-25.912 14.607-35.263 9.352-9.356 22.037-14.606 35.263-14.606h99.74v-99.742h-99.74c-13.226 0-25.911-5.255-35.263-14.606-9.352-9.356-14.607-22.039-14.607-35.263 0-13.228 5.254-25.912 14.607-35.263 9.352-9.356 22.037-14.611 35.263-14.611h108.717c7.446-20.913 19.455-39.908 35.153-55.608s34.695-27.709 55.61-35.156v-108.716c0-13.224 5.254-25.912 14.606-35.263s22.037-14.606 35.263-14.606c13.227 0 25.911 5.255 35.264 14.606s14.606 22.039 14.606 35.263v99.742h99.74v-99.742c0-13.224 5.255-25.912 14.606-35.263s22.039-14.606 35.263-14.606c13.228 0 25.912 5.255 35.263 14.606 9.356 9.351 14.606 22.039 14.606 35.263v99.742h99.742v-99.742c0-13.224 5.255-25.912 14.606-35.263 9.356-9.351 22.039-14.606 35.263-14.606 13.228 0 25.912 5.255 35.263 14.606 9.356 9.351 14.611 22.039 14.611 35.263v108.716c20.913 7.447 39.908 19.456 55.608 35.156s27.709 34.695 35.156 55.608h108.716c13.224 0 25.912 5.255 35.263 14.611 9.351 9.351 14.606 22.035 14.606 35.263 0 13.224-5.255 25.907-14.606 35.263-9.351 9.351-22.039 14.606-35.263 14.606h-99.742v99.742h99.742zM761.372 248.502c0-13.228-5.255-25.912-14.611-35.263-9.351-9.356-22.035-14.611-35.263-14.611h-398.96c-13.226 0-25.911 5.255-35.263 14.611-9.352 9.351-14.606 22.035-14.606 35.263v398.96c0 13.226 5.254 25.911 14.606 35.263s22.037 14.606 35.263 14.606h398.96c13.228 0 25.912-5.254 35.263-14.606 9.356-9.352 14.611-22.037 14.611-35.263v-398.96z" />
<glyph unicode="&#xe92a;" glyph-name="Automative" horiz-adv-x="939" d="M263.637 813.712c6.016-0.035 11.98 1.118 17.55 3.393s10.636 5.627 14.907 9.864l45.714 45.714c8.608 8.608 13.444 20.283 13.444 32.457s-4.836 23.849-13.444 32.457c-8.608 8.608-20.283 13.444-32.457 13.444s-23.849-4.836-32.457-13.444l-45.714-45.714c-4.285-4.25-7.686-9.306-10.007-14.877s-3.516-11.546-3.516-17.58c0-6.035 1.195-12.010 3.516-17.581s5.722-10.627 10.007-14.877c4.271-4.237 9.337-7.589 14.907-9.864s11.534-3.428 17.55-3.393zM446.494 813.712c6.016-0.035 11.981 1.118 17.549 3.393 5.572 2.275 10.637 5.627 14.908 9.864l45.713 45.714c8.61 8.608 13.444 20.283 13.444 32.457s-4.834 23.849-13.444 32.457c-8.606 8.608-20.279 13.444-32.457 13.444-12.173 0-23.846-4.836-32.457-13.444l-45.713-45.714c-4.285-4.25-7.686-9.306-10.007-14.877s-3.516-11.546-3.516-17.58c0-6.035 1.195-12.010 3.516-17.581s5.722-10.627 10.007-14.877c4.271-4.237 9.338-7.589 14.908-9.864 5.568-2.275 11.533-3.428 17.549-3.393zM629.35 813.712c6.016-0.035 11.981 1.118 17.549 3.393 5.572 2.275 10.637 5.627 14.908 9.864l45.717 45.714c4.262 4.262 7.642 9.323 9.95 14.892 2.304 5.569 3.494 11.538 3.494 17.566s-1.19 11.997-3.494 17.566c-2.308 5.569-5.687 10.629-9.95 14.891s-9.323 7.643-14.895 9.95c-5.568 2.307-11.537 3.494-17.566 3.494-6.025 0-11.994-1.187-17.562-3.494-5.572-2.307-10.633-5.688-14.895-9.95l-45.713-45.714c-4.284-4.25-7.684-9.306-10.005-14.877s-3.516-11.546-3.516-17.58c0-6.035 1.195-12.010 3.516-17.581s5.722-10.627 10.005-14.877c4.271-4.237 9.335-7.589 14.908-9.864 5.568-2.275 11.533-3.428 17.549-3.393zM739.981 282.513c-1.003 2.91-2.385 5.679-4.117 8.226l-5.483 6.857-6.857 5.487c-2.551 1.732-5.316 3.115-8.23 4.113-2.722 1.395-5.658 2.321-8.687 2.743-7.343 1.472-14.938 1.114-22.11-1.037s-13.709-6.033-19.034-11.307c-1.963-2.172-3.797-4.459-5.483-6.857-1.732-2.547-3.115-5.316-4.117-8.226-1.314-2.594-2.24-5.367-2.739-8.23-0.226-3.042-0.226-6.097 0-9.143 0.047-11.994 4.809-23.484 13.257-32 4.228-4.42 9.378-7.855 15.083-10.057 5.214-2.227 10.795-3.469 16.461-3.657 12.122 0 23.748 4.817 32.324 13.389 8.572 8.572 13.389 20.203 13.389 32.324 0.222 3.046 0.222 6.101 0 9.143-0.789 2.914-2.022 5.692-3.657 8.23v0zM824.094 488.683l-62.17 185.6c-9.485 26.824-27.076 50.034-50.338 66.416s-51.042 25.123-79.492 25.013h-325.486c-28.451 0.11-56.231-8.632-79.493-25.013s-40.852-39.592-50.336-66.416l-62.172-185.6c-29.242-7.659-55.135-24.759-73.653-48.653s-28.624-53.231-28.746-83.46v-182.857c0.080-28.297 8.909-55.872 25.277-78.955 16.368-23.078 39.475-40.529 66.151-49.963v-53.939c0-12.126 4.816-23.753 13.389-32.329 8.573-8.572 20.201-13.389 32.325-13.389s23.752 4.817 32.325 13.389c8.573 8.576 13.39 20.203 13.39 32.329v45.713h548.572v-45.713c0-12.126 4.817-23.753 13.389-32.329 8.572-8.572 20.203-13.389 32.324-13.389 12.126 0 23.753 4.817 32.324 13.389 8.576 8.576 13.389 20.203 13.389 32.329v53.939c26.679 9.434 49.783 26.884 66.155 49.963 16.367 23.083 25.195 50.658 25.276 78.955v182.857c-0.124 30.229-10.227 59.567-28.745 83.46-18.522 23.893-44.412 40.994-73.655 48.653zM263.18 645.483c3.066 9.080 8.909 16.966 16.702 22.545s17.142 8.566 26.726 8.541h325.486c9.967 0.521 19.836-2.237 28.087-7.85 8.256-5.613 14.447-13.774 17.626-23.236l48-151.77h-512.913l50.286 151.77zM835.063 173.713c0-12.126-4.813-23.753-13.389-32.324-8.572-8.576-20.198-13.393-32.324-13.393h-639.999c-12.124 0-23.752 4.817-32.325 13.393-8.573 8.572-13.389 20.198-13.389 32.324v182.857c0 12.122 4.816 23.753 13.389 32.324s20.201 13.389 32.325 13.389h639.999c12.126 0 23.753-4.817 32.324-13.389 8.576-8.572 13.389-20.203 13.389-32.324v-182.857zM515.063 310.857h-91.427c-12.124 0-23.752-4.817-32.325-13.393-8.573-8.572-13.39-20.198-13.39-32.324 0-12.122 4.816-23.753 13.39-32.324s20.201-13.389 32.325-13.389h91.427c12.126 0 23.753 4.817 32.329 13.389 8.572 8.572 13.389 20.203 13.389 32.324 0 12.126-4.817 23.753-13.389 32.324-8.576 8.576-20.203 13.393-32.329 13.393zM282.837 282.513c-1.001 2.91-2.384 5.679-4.114 8.226l-5.486 6.857c-6.429 6.345-14.592 10.641-23.46 12.352-8.868 1.707-18.044 0.751-26.369-2.752-5.612-2.176-10.738-5.436-15.086-9.6-1.966-2.172-3.798-4.459-5.486-6.857-1.73-2.547-3.114-5.316-4.114-8.226-1.636-2.539-2.87-5.316-3.657-8.23-0.224-3.042-0.224-6.097 0-9.143 0.038-9.041 2.756-17.865 7.81-25.361s12.218-13.329 20.585-16.751c8.367-3.426 17.562-4.292 26.422-2.492 8.86 1.796 16.987 6.187 23.354 12.604 8.445 8.516 13.207 20.006 13.257 32 0.224 3.046 0.224 6.101 0 9.143-0.787 2.914-2.021 5.692-3.657 8.23v0z" />
<glyph unicode="&#xe92b;" glyph-name="Fashion" d="M611.756 148.806c13.228 0 25.912 5.255 35.263 14.611 9.356 9.351 14.611 22.035 14.611 35.263v99.738c0 13.228-5.255 25.912-14.611 35.263-9.351 9.356-22.035 14.611-35.263 14.611-13.224 0-25.912-5.255-35.263-14.611-9.351-9.351-14.606-22.035-14.606-35.263v-99.738c0-13.228 5.255-25.912 14.606-35.263 9.351-9.356 22.039-14.611 35.263-14.611zM412.277 148.806c13.226 0 25.911 5.255 35.264 14.611 9.352 9.351 14.606 22.035 14.606 35.263v99.738c0 13.228-5.254 25.912-14.606 35.263-9.352 9.356-22.037 14.611-35.264 14.611s-25.911-5.255-35.263-14.611c-9.352-9.351-14.607-22.035-14.607-35.263v-99.738c0-13.228 5.255-25.912 14.607-35.263 9.352-9.356 22.037-14.611 35.263-14.611zM861.11 747.249h-68.822l-86.277 172.052c-2.634 6.331-6.549 12.050-11.497 16.8-4.943 4.75-10.817 8.429-17.25 10.806s-13.289 3.403-20.136 3.012c-6.847-0.391-13.535-2.19-19.656-5.284s-11.539-7.418-15.909-12.7c-4.375-5.282-7.61-11.41-9.509-17.999s-2.42-13.5-1.527-20.3c0.894-6.799 3.179-13.341 6.717-19.218l63.334-127.169h-337.122l63.335 127.169c4.84 11.624 5.105 24.65 0.739 36.461s-13.038 21.533-24.275 27.215c-11.237 5.682-24.208 6.902-36.308 3.416s-22.434-11.42-28.926-22.209l-86.275-172.052h-68.821c-35.249-0.536-69.176-13.502-95.798-36.611s-44.229-54.877-49.715-89.7c-5.486-34.823 1.501-70.466 19.729-100.64s46.526-52.944 79.903-64.292l36.904-372.029c3.722-37.032 21.113-71.35 48.777-96.247s63.616-38.591 100.834-38.405h417.913c37.218-0.186 73.169 13.507 100.831 38.405 27.667 24.897 45.056 59.215 48.78 96.247l36.901 372.029c33.452 11.38 61.794 34.234 80.007 64.51 18.218 30.275 25.13 66.021 19.512 100.904-5.613 34.883-23.394 66.654-50.19 89.685-26.792 23.030-60.877 35.834-96.205 36.144v0zM770.844 93.952c-1.243-12.344-7.038-23.785-16.258-32.084s-21.206-12.865-33.61-12.8h-417.914c-12.406-0.065-24.39 4.501-33.611 12.8s-15.018 19.74-16.259 32.084l-35.408 354.076h588.468l-35.407-354.076zM861.11 547.769h-698.183c-13.226 0-25.911 5.254-35.263 14.606s-14.607 22.037-14.607 35.263c0 13.226 5.254 25.911 14.607 35.264s22.037 14.606 35.263 14.606h698.183c13.224 0 25.912-5.254 35.263-14.606s14.606-22.037 14.606-35.264c0-13.226-5.255-25.911-14.606-35.263s-22.039-14.606-35.263-14.606z" />
<glyph unicode="&#xe92c;" glyph-name="Food" d="M337.989 424.071c-9.863 0-19.505-2.923-27.706-8.401-8.201-5.483-14.593-13.27-18.368-22.384s-4.762-19.139-2.838-28.812c1.924-9.677 6.674-18.562 13.649-25.535 6.974-6.977 15.86-11.725 25.534-13.652 9.674-1.922 19.701-0.936 28.814 2.839s16.901 10.166 22.381 18.367c5.48 8.201 8.405 17.846 8.405 27.709 0 13.228-5.254 25.912-14.607 35.263s-22.037 14.606-35.263 14.606zM337.989 647.49c-9.863 0-19.505-2.925-27.706-8.405s-14.593-13.268-18.368-22.381c-3.774-9.113-4.762-19.14-2.838-28.813s6.674-18.56 13.649-25.534c6.974-6.975 15.86-11.724 25.534-13.649s19.701-0.936 28.814 2.838c9.113 3.774 16.901 10.166 22.381 18.368s8.405 17.843 8.405 27.706c0 13.226-5.254 25.911-14.607 35.264s-22.037 14.606-35.263 14.606zM512.037 547.75c-13.228 0-25.912-5.254-35.263-14.606-9.356-9.352-14.608-22.037-14.608-35.264v-49.87c0-13.228 5.253-25.912 14.608-35.263 9.351-9.351 22.035-14.606 35.263-14.606 13.224 0 25.912 5.255 35.263 14.606s14.606 22.035 14.606 35.263v49.87c0 13.226-5.255 25.911-14.606 35.264s-22.039 14.606-35.263 14.606zM935.931 619.064c-17.203 9.898-36.203 16.275-55.896 18.758s-39.68 1.023-58.806-4.296c-19.898-5.331-38.433-14.853-54.356-27.927l-578.495 334.629c-7.581 4.377-16.181 6.681-24.935 6.681s-17.354-2.304-24.935-6.681c-7.703-4.33-14.118-10.629-18.587-18.253s-6.832-16.297-6.847-25.134v-656.792c-29.431-9.923-54.948-28.942-72.874-54.305-17.926-25.367-27.333-55.771-26.866-86.826-0.014-38.996 15.2-76.46 42.4-104.406s64.237-44.162 103.221-45.205h28.925c163.411 0.386 323.813 43.999 464.915 126.422 141.103 82.418 257.885 200.709 338.493 342.858 18.618 34.011 23.301 73.919 13.070 111.319-10.235 37.398-34.588 69.363-67.928 89.158h-0.498zM212.815 810.565l493.214-284.759c-54.714-81.647-127.865-149.287-213.541-197.452-85.678-48.165-181.48-75.511-279.673-79.825v562.036zM904.513 467.461c-74.035-130.444-182.156-238.294-312.785-311.999s-278.849-110.49-428.782-106.412c-13.227 0-25.911 5.255-35.264 14.606s-14.606 22.035-14.606 35.263c-0.039 6.684 1.265 13.303 3.835 19.47 2.57 6.172 6.353 11.757 11.126 16.435 9.369 9.034 21.896 14.043 34.909 13.964h25.433c128.053 0.056 253.795 34.109 364.372 98.686s202.021 157.356 264.988 268.859c3.030 5.47 7.163 10.248 12.148 14.026 4.98 3.779 10.696 6.475 16.78 7.916 12.572 3.451 26 1.84 37.399-4.488 11.446-6.15 20.033-16.522 23.948-28.909 3.91-12.389 2.835-25.812-3.002-37.416h-0.498z" />
<glyph unicode="&#xe92d;" glyph-name="Sports--Fitness" d="M511.981 946.727c-83.395-0.085-165.438-21.083-238.621-61.072s-135.169-97.693-180.287-167.831v0c-63.456-99.519-89.559-218.318-73.667-335.271 15.893-116.955 72.75-224.479 160.462-303.458 87.712-78.974 200.592-124.281 318.568-127.865 117.969-3.579 233.393 34.797 325.734 108.307v0c80.365 64.689 138.691 152.711 166.945 251.937 28.248 99.226 25.027 204.77-9.216 302.088-34.248 97.319-97.829 181.622-181.993 241.292-84.159 59.669-184.758 91.769-287.926 91.874v0zM611.724 834.021c68.911-17.838 131.798-53.789 182.132-104.124s86.281-113.219 104.122-182.131c-83.386-2.349-164.771-26.044-236.386-68.823-35.961 40.797-76.074 77.734-119.687 110.215 43.944 74.259 67.989 158.596 69.818 244.863v0zM511.981 846.987c-0.163-71.565-19.819-141.734-56.851-202.972-7.48 3.99-14.462 8.478-21.943 11.969-64.215 33.882-132.877 58.56-203.969 73.309 37.056 37.277 81.112 66.864 129.638 87.062s100.564 30.607 153.125 30.632v0zM162.891 639.527c78.217-10.866 153.97-35.16 223.917-71.813l6.483-3.99c-36.809-36.774-80.512-65.923-128.606-85.777-48.094-19.852-99.633-30.022-151.664-29.919 0.277 67.007 17.428 132.867 49.87 191.499v0zM412.242 62.031c-68.912 17.836-131.797 53.788-182.131 104.122s-86.285 113.222-104.124 182.132c66.609 1.48 132.23 16.426 192.91 43.934 60.68 27.513 115.164 67.021 160.171 116.149 36.049-26.651 69.45-56.711 99.738-89.767-50.497-45.028-91.308-99.859-119.943-161.159s-44.498-127.786-46.622-195.412v0zM511.981 49.064c0.107 54.789 11.501 108.968 33.466 159.162s54.030 95.325 94.203 132.58c2.993-3.989 5.981-7.48 8.476-11.469 41.793-63.995 72.792-134.419 91.76-208.458-66.746-46.867-146.348-71.95-227.905-71.815zM821.676 198.675c-21.658 65.978-51.833 128.847-89.768 187.015l-10.473 12.465c57.986 32.261 123.155 49.408 189.505 49.873-0.493-90.857-31.986-178.823-89.265-249.353z" />
<glyph unicode="&#xe92e;" glyph-name="Broadband" d="M511.974 310.784c-27.127 0-53.641-8.043-76.194-23.113s-40.131-36.489-50.511-61.547c-10.38-25.062-13.096-52.634-7.804-79.241 5.292-26.603 18.353-51.038 37.533-70.217 19.178-19.179 43.617-32.243 70.22-37.534s54.178-2.577 79.236 7.804c25.058 10.381 46.481 27.959 61.547 50.513 15.070 22.554 23.113 49.067 23.113 76.19 0 36.373-14.447 71.258-40.166 96.977s-60.604 40.166-96.973 40.166zM511.974 127.927c-9.041 0-17.882 2.679-25.399 7.706-7.518 5.022-13.376 12.16-16.836 20.514s-4.365 17.545-2.603 26.415c1.766 8.866 6.118 17.011 12.51 23.403 6.396 6.396 14.541 10.748 23.407 12.514 8.87 1.762 18.061 0.858 26.415-2.603s15.492-9.318 20.514-16.836c5.026-7.518 7.706-16.358 7.706-25.399 0-12.122-4.817-23.753-13.389-32.324-8.576-8.572-20.203-13.389-32.324-13.389zM511.974 493.642c-84.813-0.292-166.102-33.958-226.287-93.714-8.514-8.563-13.293-20.151-13.293-32.23 0-12.075 4.779-23.663 13.293-32.226 8.565-8.516 20.151-13.295 32.229-13.295s23.663 4.779 32.228 13.295c21.233 21.286 46.455 38.174 74.225 49.698 27.77 11.52 57.539 17.451 87.606 17.451 30.063 0 59.831-5.931 87.603-17.451 27.767-11.524 52.992-28.412 74.223-49.698 8.439-8.614 19.942-13.542 32-13.713 9.276-0.538 18.492 1.771 26.428 6.605 7.932 4.838 14.199 11.977 17.975 20.467 3.772 8.486 4.868 17.924 3.145 27.055-1.728 9.131-6.191 17.515-12.804 24.043-30.080 29.867-65.745 53.512-104.964 69.592s-81.22 24.276-123.605 24.122zM511.974 676.499c-133.305-0.354-261.095-53.244-355.659-147.2-4.262-4.262-7.644-9.322-9.95-14.892s-3.494-11.538-3.494-17.565c0-12.174 4.836-23.849 13.444-32.457s20.283-13.444 32.457-13.444c12.174 0 23.849 4.836 32.457 13.444 77.143 77.047 181.714 120.324 290.744 120.324 109.026 0 213.598-43.277 290.739-120.324 4.275-4.237 9.34-7.589 14.908-9.864 5.572-2.275 11.537-3.428 17.553-3.393 6.016-0.035 11.977 1.118 17.549 3.393 5.568 2.275 10.637 5.627 14.908 9.864 4.284 4.25 7.684 9.306 10.005 14.877s3.516 11.546 3.516 17.581c0 6.035-1.195 12.010-3.516 17.58s-5.722 10.627-10.005 14.877c-94.566 93.956-222.353 146.846-355.657 147.2zM997.001 658.67c-63.68 63.721-139.29 114.27-222.515 148.758-83.221 34.488-172.425 52.239-262.511 52.239-90.088 0-179.291-17.751-262.515-52.239s-158.835-85.037-222.515-148.758c-8.608-8.608-13.444-20.283-13.444-32.457s4.836-23.849 13.444-32.457c8.608-8.608 20.284-13.444 32.457-13.444s23.849 4.836 32.457 13.444c111.441 111.383 262.554 173.953 420.116 173.953 157.559 0 308.672-62.57 420.113-173.953 4.25-4.285 9.306-7.686 14.878-10.006 5.568-2.321 11.546-3.516 17.579-3.516s12.011 1.195 17.579 3.516c5.572 2.321 10.628 5.722 14.878 10.006 4.284 4.25 7.684 9.306 10.005 14.877s3.516 11.546 3.516 17.581c0 6.035-1.195 12.010-3.516 17.58s-5.722 10.627-10.005 14.877v0z" />
<glyph unicode="&#xe92f;" glyph-name="Travel" d="M1010.669 793.098c0.042 30.41-8.946 60.148-25.819 85.446-16.877 25.298-40.881 45.018-68.971 56.661-28.095 11.643-59.010 14.685-88.832 8.741-29.826-5.944-57.214-20.607-78.694-42.131l-140.134-140.135-323.658 107.72c-8.617 2.708-17.808 3.025-26.591 0.917s-16.829-6.562-23.279-12.887l-118.691-117.693c-5.624-5.689-9.796-12.647-12.166-20.288s-2.866-15.739-1.448-23.612c1.418-7.873 4.709-15.289 9.596-21.623s11.225-11.399 18.481-14.768l258.327-117.195-129.663-129.663-85.278 42.887c-9.208 4.985-19.75 6.945-30.133 5.604-10.383-1.345-20.080-5.921-27.717-13.084l-88.27-90.266c-9.288-9.342-14.502-21.983-14.502-35.156 0-13.177 5.214-25.814 14.502-35.16l323.657-323.654c9.344-9.29 21.983-14.504 35.159-14.504s25.815 5.213 35.159 14.504l90.264 88.269c7.485 7.405 12.432 16.994 14.136 27.387 1.704 10.389 0.070 21.053-4.659 30.459l-42.887 85.281 129.662 129.662 117.192-258.327c3.37-7.256 8.434-13.596 14.769-18.479 6.335-4.887 13.75-8.178 21.625-9.598 7.871-1.42 15.97-0.922 23.608 1.448 7.643 2.369 14.601 6.544 20.289 12.167l117.695 117.695c6.326 6.447 10.78 14.494 12.888 23.277 2.104 8.783 1.787 17.976-0.922 26.591l-107.715 323.657 138.138 141.133c14.322 14.235 25.67 31.179 33.378 49.844 7.703 18.666 11.618 38.679 11.506 58.873v0zM894.971 754.698l-161.578-161.579c-6.326-6.449-10.78-14.495-12.888-23.279s-1.792-17.974 0.917-26.591l107.72-323.159-44.884-44.884-117.192 257.829c-3.328 7.322-8.378 13.731-14.713 18.683-6.339 4.948-13.782 8.29-21.695 9.742-7.973 1.457-16.184 0.945-23.92-1.489-7.736-2.43-14.76-6.712-20.466-12.474l-205.463-207.458c-7.377-7.368-12.258-16.868-13.958-27.155s-0.132-20.848 4.482-30.199l40.893-83.782-27.927-27.927-250.847 251.345 29.423 25.935 85.278-42.892c9.35-4.613 19.911-6.181 30.199-4.478 10.287 1.699 19.783 6.577 27.152 13.954l206.462 207.461c5.73 5.686 9.993 12.677 12.428 20.374s2.96 15.87 1.536 23.815c-1.42 7.946-4.752 15.427-9.7 21.803-4.952 6.375-11.38 11.453-18.725 14.798l-259.823 117.194 44.883 44.883 323.159-107.72c8.616-2.708 17.808-3.025 26.591-0.917s16.831 6.562 23.277 12.887l161.583 161.579c4.966 5.082 10.901 9.12 17.455 11.876 6.549 2.757 13.587 4.177 20.694 4.177s14.145-1.42 20.694-4.177c6.554-2.756 12.488-6.794 17.455-11.876 5.204-4.819 9.318-10.693 12.069-17.229s4.077-13.583 3.891-20.672c0.27-7.041-0.87-14.066-3.351-20.661-2.486-6.595-6.26-12.626-11.11-17.739v0z" />
<glyph unicode="&#xe930;" glyph-name="Health--Beauty" d="M960.852 527.299h-124.677c-6.595-0.027-13.126-1.364-19.205-3.932-6.074-2.568-11.585-6.317-16.202-11.029l-61.84-64.332-139.636 159.085c-4.664 4.983-10.301 8.955-16.566 11.67-6.26 2.715-13.014 4.116-19.838 4.116-6.828 0-13.577-1.401-19.842-4.116-6.26-2.715-11.897-6.688-16.566-11.67l-84.777-84.779h-79.294c-13.226 0-25.911-5.255-35.263-14.607s-14.606-22.037-14.606-35.263c0-13.226 5.254-25.911 14.606-35.264s22.037-14.606 35.263-14.606h99.74c6.563-0.038 13.070 1.22 19.144 3.702 6.079 2.482 11.604 6.138 16.263 10.76l64.335 66.826 139.636-159.084c4.501-5.139 10.017-9.29 16.193-12.209 6.177-2.914 12.884-4.534 19.712-4.748 6.563-0.037 13.070 1.219 19.144 3.7 6.079 2.481 11.604 6.139 16.263 10.761l84.778 85.277h103.233c13.224 0 25.912 5.255 35.263 14.607s14.606 22.037 14.606 35.263c0 13.226-5.255 25.911-14.606 35.263s-22.039 14.607-35.263 14.607zM592.31 262.986l-94.753-94.753c-4.636-4.673-10.152-8.383-16.23-10.915-6.074-2.532-12.595-3.835-19.177-3.835-6.583 0-13.102 1.303-19.179 3.835s-11.593 6.242-16.229 10.915l-259.824 259.824c-17.099 17.089-30.664 37.38-39.919 59.714s-14.018 46.272-14.018 70.447c0 24.175 4.763 48.114 14.018 70.447s22.819 42.625 39.919 59.714c34.493 34.382 81.21 53.688 129.912 53.688s95.418-19.306 129.912-53.688c4.636-4.674 10.152-8.384 16.229-10.916s12.595-3.835 19.179-3.835c6.582 0 13.103 1.303 19.177 3.835 6.079 2.532 11.594 6.242 16.23 10.916 35.044 33.327 81.552 51.913 129.913 51.913s94.869-18.585 129.913-51.913c11.11-11.257 20.82-23.816 28.923-37.403 7.261-9.984 17.967-16.921 30.050-19.467 12.079-2.546 24.674-0.52 35.347 5.686s18.665 16.149 22.43 27.907c3.766 11.758 3.035 24.495-2.053 35.745-12.325 20.469-27.057 39.389-43.883 56.353-47.327 47.883-110.164 77.344-177.24 83.101s-134.014-12.565-188.807-51.683c-42.347 30.506-92.298 48.72-144.342 52.631s-104.157-6.632-150.587-30.467c-46.43-23.834-85.374-60.033-112.532-104.601s-41.475-95.773-41.371-147.963c-0.015-37.108 7.339-73.849 21.636-108.093s35.251-65.307 61.647-91.386l259.823-259.826c28.052-28.016 66.078-43.753 105.725-43.753s77.675 15.737 105.723 43.753l93.757 93.757c9.29 9.342 14.504 21.983 14.504 35.16 0 13.172-5.213 25.814-14.504 35.156-9.3 8.988-21.727 14.015-34.658 14.015-12.935 0-25.363-5.027-34.662-14.015z" />
<glyph unicode="&#xe931;" glyph-name="f" horiz-adv-x="559" d="M510.804 391.144l27.593 175.301h-172.596v113.71c0 47.974 24.065 94.761 101.367 94.761h78.516v149.239c0 0-71.222 11.846-139.294 11.846-142.207 0-235.064-83.975-235.064-235.946v-133.611h-158.011v-175.301h158.011v-423.798c31.722-4.854 64.177-7.346 97.235-7.346s65.513 2.482 97.235 7.346v423.798h145.003z" />
<glyph unicode="&#xe932;" glyph-name="instagram" d="M853.6 716.4c0-40.427-32.775-73.2-73.2-73.2s-73.2 32.773-73.2 73.2c0 40.427 32.775 73.2 73.2 73.2s73.2-32.773 73.2-73.2zM512 204c-134.758 0-244 109.243-244 244s109.242 244 244 244c134.757 0 244-109.242 244-244s-109.243-244-244-244zM512 301.6c80.856 0 146.4 65.545 146.4 146.4s-65.545 146.4-146.4 146.4c-80.856 0-146.4-65.545-146.4-146.4s65.545-146.4 146.4-146.4zM24 467.52v-39.040c0-163.983 0-245.978 31.914-308.607 28.072-55.096 72.865-99.888 127.957-127.958 62.633-31.916 144.625-31.916 308.609-31.916h39.040c163.983 0 245.978 0 308.607 31.916 55.096 28.070 99.888 72.865 127.958 127.958 31.916 62.629 31.916 144.623 31.916 308.607v39.040c0 163.984 0 245.976-31.916 308.609-28.070 55.095-72.865 99.888-127.958 127.957-62.629 31.914-144.623 31.914-308.607 31.914h-39.040c-163.984 0-245.976 0-308.609-31.914-55.095-28.072-99.888-72.865-127.957-127.957-31.914-62.633-31.914-144.625-31.914-308.609zM492.48 838.4h39.040c83.603 0 140.432-0.077 184.362-3.665 42.792-3.497 64.675-9.833 79.941-17.61 36.727-18.714 66.586-48.578 85.304-85.307 7.778-15.265 14.119-37.146 17.611-79.938 3.586-43.929 3.665-100.76 3.665-184.364v-39.040c0-83.603-0.079-140.432-3.665-184.362-3.495-42.792-9.834-64.675-17.611-79.941-18.714-36.727-48.576-66.586-85.304-85.304-15.265-7.778-37.146-14.119-79.941-17.611-43.93-3.586-100.757-3.665-184.362-3.665h-39.040c-83.601 0-140.435 0.079-184.364 3.665-42.791 3.495-64.672 9.834-79.938 17.611-36.73 18.714-66.59 48.576-85.307 85.304-7.778 15.265-14.116 37.146-17.61 79.941-3.588 43.93-3.665 100.757-3.665 184.362v39.040c0 83.601 0.077 140.435 3.665 184.364 3.497 42.791 9.833 64.672 17.61 79.938 18.714 36.73 48.578 66.59 85.307 85.307 15.265 7.778 37.146 14.116 79.938 17.61 43.929 3.588 100.76 3.665 184.364 3.665z" />
<glyph unicode="&#xe933;" glyph-name="Vector" horiz-adv-x="1479" d="M1483.582 818.415h-184.878c-15.635-0.034-30.806-5.399-43.037-15.224s-20.812-23.533-24.35-38.899l-259.887 80.461c-33.503 10.305-69.409 9.422-102.376-2.517l-38.685-13.986-181.315 40.138c-38.304 8.495-78.203 5.877-115.087-7.552l-234.377-85.217c-5.295 12.688-14.186 23.516-25.556 31.129s-24.716 11.671-38.365 11.666h-184.876c-6.129 0-12.007-2.456-16.341-6.827s-6.768-10.3-6.768-16.482v-466.174c0-6.183 2.435-12.113 6.768-16.481 4.334-4.373 10.212-6.827 16.341-6.827h184.876c11.409 0.015 22.64 2.867 32.693 8.308s18.621 13.299 24.943 22.881c85.486-109.327 194.093-198.022 317.895-259.614l99.74-49.509c15.156-7.591 32.023-11.025 48.911-9.953s33.199 6.611 47.287 16.063c14.093 9.452 25.464 22.484 32.972 37.778 7.514 15.295 10.896 32.317 9.808 49.35 6.26-1.634 12.675-2.583 19.136-2.846 6.338 0.010 12.655 0.665 18.858 1.96 20.235 4.146 38.49 15.058 51.809 30.976 13.319 15.914 20.926 35.895 21.586 56.713 13.139-7.456 27.908-11.51 42.981-11.798 6.322 0.010 12.623 0.665 18.812 1.96 21.545 4.414 40.805 16.476 54.285 33.993 13.474 17.523 20.276 39.335 19.157 61.478 17.893-4.491 36.741-3.089 53.784 4.012 17.043 7.096 31.384 19.513 40.918 35.427 6.946 10.576 11.664 22.478 13.866 34.963h25.052c1.893-17.028 9.917-32.765 22.555-44.218 12.634-11.458 29.001-17.832 45.988-17.92h184.878c6.126 0 12.005 2.455 16.341 6.827 4.332 4.367 6.766 10.298 6.766 16.481v466.174c0 6.182-2.434 12.11-6.766 16.482-4.336 4.371-10.216 6.827-16.341 6.827zM258.779 375.548c0-6.183-2.435-12.108-6.768-16.481s-10.212-6.827-16.341-6.827h-161.766v419.558h161.766c6.129 0 12.008-2.456 16.341-6.827s6.768-10.3 6.768-16.482v-372.941zM1152.7 358.253c-3.331-5.115-7.637-9.514-12.655-12.953-5.023-3.439-10.669-5.848-16.615-7.086-5.941-1.237-12.072-1.279-18.033-0.129s-11.639 3.471-16.708 6.837l-214.596 142.509-9.89-15.151c-1.516-1.029-2.815-2.349-3.821-3.885s-1.701-3.258-2.047-5.065l-9.664-14.824 17.703-11.748c0.232 0 0.372-0.42 0.604-0.606l162.921-108.246c10.014-6.894 16.94-17.486 19.286-29.48 2.346-12-0.077-24.448-6.75-34.664-6.668-10.21-17.048-17.373-28.909-19.936-11.855-2.563-24.231-0.33-34.468 6.229l-58.327 38.737-0.65 0.516-141.799 94.167h-0.372l-13.449 8.952c-5.121 3.274-11.309 4.395-17.233 3.115-5.93-1.284-11.123-4.863-14.454-9.968-3.337-5.111-4.549-11.334-3.377-17.331 1.176-6.003 4.636-11.293 9.643-14.743l155.897-103.537c7.503-5.131 13.346-12.376 16.8-20.833 3.45-8.452 4.363-17.744 2.62-26.722-1.743-8.973-6.064-17.229-12.427-23.742-6.363-6.518-14.485-10.999-23.355-12.897-12-2.476-24.484-0.042-34.71 6.76l-156.495 103.959c-2.532 1.743-5.383 2.96-8.39 3.584-3.007 0.619-6.1 0.629-9.112 0.031-3.007-0.598-5.868-1.795-8.415-3.517-2.547-1.728-4.724-3.945-6.415-6.528-1.686-2.583-2.846-5.481-3.414-8.519-0.562-3.042-0.526-6.162 0.119-9.19s1.877-5.889 3.63-8.431c1.753-2.537 3.987-4.698 6.574-6.358l8.137-5.404c0.227 0 0.366-0.47 0.644-0.654l110.926-73.606c11.334-6.858 19.559-17.925 22.906-30.821s1.552-26.609-4.997-38.185c-6.555-11.582-17.337-20.116-30.048-23.773s-26.341-2.15-37.964 4.202l-99.968 49.834c-130.023 64.711-242.202 160.786-326.586 279.705v329.213l244.591 88.852c28.701 10.412 59.729 12.448 89.524 5.874l109.678-24.287-79.31-28.856c-24.36-8.414-44.414-26.244-55.744-49.568s-13.005-50.234-4.662-74.807c8.338-24.573 26.015-44.798 49.143-56.223s49.803-13.119 74.168-4.705l109.858 35.943 297.283-197.425c5.502-3.662 10.159-8.469 13.67-14.097 3.506-5.628 5.78-11.948 6.668-18.534 0.036-1.139 0.144-2.279 0.32-3.404 0.654-10.082-1.975-20.142-7.487-28.579zM1229.379 414.242h-27.733c-6.595 19.528-19.482 36.266-36.607 47.55l-306.524 203.625c-2.892 1.921-6.173 3.161-9.607 3.629-3.429 0.469-6.925 0.152-10.22-0.925l-120.445-39.439c-9.349-3.070-19.384-3.339-28.882-0.774s-18.058 7.853-24.639 15.226c-5.6 6.247-9.591 13.789-11.613 21.961-2.027 8.172-2.021 16.719 0.005 24.889s6.018 15.711 11.623 21.955c5.605 6.245 12.644 11.001 20.503 13.848l199.621 72.63c23.545 8.534 49.195 9.155 73.122 1.771l271.397-84.098v-301.848zM1460.47 352.24h-161.765c-6.126 0-12.005 2.455-16.341 6.827-4.332 4.373-6.766 10.298-6.766 16.481v372.941c0 6.182 2.434 12.11 6.766 16.482 4.336 4.371 10.216 6.827 16.341 6.827h161.765v-419.558z" />
<glyph unicode="&#xe934;" glyph-name="heart-fill" d="M512 9.143c-9.143 0-18.286 3.429-25.143 10.286l-356.571 344c-4.571 4-130.286 118.857-130.286 256 0 167.429 102.286 267.429 273.143 267.429 100 0 193.714-78.857 238.857-123.429 45.143 44.571 138.857 123.429 238.857 123.429 170.857 0 273.143-100 273.143-267.429 0-137.143-125.714-252-130.857-257.143l-356-342.857c-6.857-6.857-16-10.286-25.143-10.286z" />
<glyph unicode="&#xe935;" glyph-name="business" d="M80.912 611.393c0.031 19.543 0.094 38.807 0.125 50.858 0.437 47.766 41.678 92.284 92.503 93.065 52.418 0.5 636.409 0.187 688.64 0 47.891-0.437 92.285-41.678 93.064-92.503 0.25-25.071 0.407-81.391 0.5-106.491 0 0-0.812-250.505-1.091-332.238-0.407-47.796-42.304-92.41-93.067-93.189-229.181-2.155-458.395-0.719-687.609 0-47.766 0.437-92.16 41.677-92.94 92.502-0.905 98.092-0.812 289.874-0.5 387.996h0.375zM955.587 557.073c0.062-12.52 0.095-23.884 0.125-31.969l-0.125-37.838-268.206-134.119c-0.47-0.157-0.937-0.282-1.374-0.437-2.093-0.937-4.278-1.656-6.526-2.155-2.435-0.654-4.683-0.967-7.93-0.687h-310.289c-7.151 0.812-7.18 0.844-13.956 3.279l-266.989 133.495c0.031 25.225 0.062 48.89 0.125 69.744l288.188-144.109h55.039c0.032 8.055 0.032 16.077 0.032 24.131 0.217 35.997 31.249 68.808 68.745 69.527 16.609 0.092 33.185 0.092 49.794 0 35.715-0.687 68.029-31.252 68.745-68.745 0.062-8.304 0.095-16.609 0.095-24.913h54.976l289.53 144.796zM80.43 555.792c-0.062-20.855-0.25-42.521 0.062 55.601h0.375c0.031 19.543 0.094 38.807 0.125 50.858 0.437 47.766 41.678 92.284 92.503 93.065 52.418 0.5 636.409 0.187 688.64 0 47.891-0.437 92.285-41.678 93.064-92.503 0.25-25.071 0.407-81.391 0.5-106.491l-0.030-17.513c-0.032 5.432-0.062 11.394-0.095 17.67l-289.53-144.766h-297.427l-288.188 144.079zM330.048 780.239c0 1.936 0 3.871 0.032 5.807 0.437 48.203 42.021 92.566 93.034 93.034 62.814 0.219 125.657 0.219 188.471 0 48.203-0.437 92.879-41.74 93.067-93.596v-30.72h0.030v-61.533h-0.030v-32.656c-0.782-24.101-33.375-40.805-52.606-22.728-5.245 4.9-8.679 11.706-9.583 18.824-0.22 1.748-0.187 2.185-0.25 3.904v0.125h0.030v18.325c0.032 4.778 0.032 9.553 0.062 14.361h-0.062v61.597h0.25c-0.030 9.397-0.125 18.825-0.25 28.222v2.373h-0.030v0.5c-0.375 16.047-14.331 30.439-31.002 30.595-62.719 0.187-125.44 0.968-188.129-0.031-16.014-0.343-30.438-14.142-30.595-31.001v-125.065c0 0-1.811-18.295-14.486-26.349-17.388-11.022-44.924 0.529-47.703 22.446-0.217 1.748-0.187 2.185-0.25 3.904 0 10.457 0 20.885 0 31.344v88.32zM673.44 630.26v62.939h0.030v61.533h-0.030v30.72c-0.187 51.856-44.864 93.128-93.067 93.596-26.192 0.062-52.416 0.125-78.641 0.125 13.549 0.031 27.099 0.031 40.648 0h17.076l8.554-0.031h4.808l8.242-0.031h4.778l8.771-0.031h4.153l12.83-0.031c48.203-0.468 92.879-41.74 93.067-93.596v-30.72h0.030v-61.533h-0.030v-32.656c-0.532-16.297-15.58-29.221-31.22-30.283zM423.706 463.807v3.841c0.22 35.995 31.252 68.808 68.745 69.525 16.609 0.095 33.188 0.095 49.796 0 35.715-0.687 68.026-31.249 68.745-68.745l0.030-6.119v-81.201c-0.030-8.055-0.030-16.079-0.030-24.101-0.22-35.778-30.658-68.808-68.745-69.557-24.384-0.157-50.046-3.497-71.243 3.684-26.974 9.116-46.737 35.902-47.299 65.061v107.612zM549.718 416.643c0.062 16.764-0.030 33.497-0.562 50.231-0.155 3.684-3.402 6.838-7.086 6.901-16.017 0.125-32.031 0-48.016 0-3.871 0-7.243-3.279-7.305-7.088-0.125-16.983-0.375-33.997-0.5-50.98 0.5-3.342 0.5-6.743-0.062-10.053-0.062-16.609 0.030-33.218 0.562-49.826 0.155-3.654 3.402-6.838 7.086-6.901 16.142-0.092 32.281-0.5 48.423 0 3.684 0.187 6.836 3.404 6.898 7.118 0.125 17.703 0.407 35.403 0.532 53.106-0.312 2.498-0.312 4.995 0.030 7.493z" />
<glyph unicode="&#xe936;" glyph-name="price-tags" horiz-adv-x="1280" d="M1232 960h-384c-26.4 0-63.274-15.274-81.942-33.942l-476.116-476.116c-18.668-18.668-18.668-49.214 0-67.882l412.118-412.118c18.668-18.668 49.214-18.668 67.882 0l476.118 476.118c18.666 18.666 33.94 55.54 33.94 81.94v384c0 26.4-21.6 48-48 48zM992 576c-53.020 0-96 42.98-96 96s42.98 96 96 96 96-42.98 96-96-42.98-96-96-96zM128 416l544 544h-80c-26.4 0-63.274-15.274-81.942-33.942l-476.116-476.116c-18.668-18.668-18.668-49.214 0-67.882l412.118-412.118c18.668-18.668 49.214-18.668 67.882 0l30.058 30.058-416 416z" />
<glyph unicode="&#xe94f;" glyph-name="dollar11" horiz-adv-x="1056" d="M512 960c-282.769 0-512-229.231-512-512 0-282.771 229.231-512 512-512 282.771 0 512 229.229 512 512 0 282.769-229.229 512-512 512zM512 38.4c-226.217 0-409.6 183.383-409.6 409.6s183.383 409.6 409.6 409.6c226.217 0 409.6-183.383 409.6-409.6s-183.383-409.6-409.6-409.6zM546.133 482.133v136.533h136.533v68.267h-136.533v68.267h-68.267v-68.267h-136.533v-273.067h136.533v-136.533h-136.533v-68.267h136.533v-68.267h68.267v68.267h136.535l-0.002 273.067h-136.533zM477.867 482.133h-68.267v136.533h68.267v-136.533zM614.402 277.333h-68.269v136.533h68.269v-136.533z" />
<glyph unicode="&#xe953;" glyph-name="calendar1" d="M320 576h128v-128h-128zM512 576h128v-128h-128zM704 576h128v-128h-128zM128 192h128v-128h-128zM320 192h128v-128h-128zM512 192h128v-128h-128zM320 384h128v-128h-128zM512 384h128v-128h-128zM704 384h128v-128h-128zM128 384h128v-128h-128zM832 960v-64h-128v64h-448v-64h-128v64h-128v-1024h960v1024h-128zM896 0h-832v704h832v-704z" />
<glyph unicode="&#xe998;" glyph-name="aid-kit" d="M896 704h-192v128c0 35.2-28.8 64-64 64h-256c-35.2 0-64-28.8-64-64v-128h-192c-70.4 0-128-57.6-128-128v-512c0-70.4 57.6-128 128-128h768c70.4 0 128 57.6 128 128v512c0 70.4-57.6 128-128 128zM384 832h256v-128h-256v128zM768 256h-192v-192h-128v192h-192v128h192v192h128v-192h192v-128z" />
<glyph unicode="&#xe99f;" glyph-name="gift" d="M771.516 640c18.126 12.88 35.512 27.216 51.444 43.148 33.402 33.402 55.746 74.5 62.912 115.722 7.858 45.186-3.672 87.14-31.63 115.1-22.3 22.298-52.51 34.086-87.364 34.086-49.632 0-101.922-23.824-143.46-65.362-66.476-66.476-105.226-158.238-126.076-223.722-15.44 65.802-46.206 154.644-106.018 214.458-32.094 32.092-73.114 48.57-111.846 48.57-31.654 0-61.78-11.004-84.26-33.486-49.986-49.988-43.232-137.786 15.086-196.104 20.792-20.792 45.098-38.062 70.72-52.412h-217.024v-256h64v-448h768v448.002h64v256h-188.484zM674.326 831.782c27.724 27.724 62.322 44.274 92.55 44.274 10.7 0 25.708-2.254 36.45-12.998 26.030-26.028 11.412-86.308-31.28-128.998-43.946-43.946-103.060-74.168-154.432-94.060h-50.672c18.568 57.548 52.058 136.456 107.384 191.782zM233.934 799.11c-0.702 9.12-0.050 26.248 12.196 38.494 10.244 10.244 23.788 12.396 33.348 12.396v0c21.258 0 43.468-10.016 60.932-27.48 33.872-33.872 61.766-87.772 80.668-155.876 0.51-1.84 1.008-3.67 1.496-5.486-1.816 0.486-3.646 0.984-5.486 1.496-68.104 18.904-122.002 46.798-155.874 80.67-15.828 15.826-25.77 36.16-27.28 55.786zM448 0h-256v416h256v-416zM448 448h-320v128h320v-128zM832 0h-256v416h256v-416zM896 448h-320v128h320v-128z" />
<glyph unicode="&#xe9bc;" glyph-name="tree" d="M976 224h-16v208c0 61.756-50.242 112-112 112h-272v128h16c26.4 0 48 21.6 48 48v160c0 26.4-21.6 48-48 48h-160c-26.4 0-48-21.6-48-48v-160c0-26.4 21.6-48 48-48h16v-128h-272c-61.756 0-112-50.244-112-112v-208h-16c-26.4 0-48-21.6-48-48v-160c0-26.4 21.6-48 48-48h160c26.4 0 48 21.6 48 48v160c0 26.4-21.6 48-48 48h-16v192h256v-192h-16c-26.4 0-48-21.6-48-48v-160c0-26.4 21.6-48 48-48h160c26.4 0 48 21.6 48 48v160c0 26.4-21.6 48-48 48h-16v192h256v-192h-16c-26.4 0-48-21.6-48-48v-160c0-26.4 21.6-48 48-48h160c26.4 0 48 21.6 48 48v160c0 26.4-21.6 48-48 48zM192 32h-128v128h128v-128zM576 32h-128v128h128v-128zM448 736v128h128v-128h-128zM960 32h-128v128h128v-128z" />
<glyph unicode="&#xe9c9;" glyph-name="sphere" d="M480 896c-265.096 0-480-214.904-480-480 0-265.098 214.904-480 480-480 265.098 0 480 214.902 480 480 0 265.096-214.902 480-480 480zM751.59 256c8.58 40.454 13.996 83.392 15.758 128h127.446c-3.336-44.196-13.624-87.114-30.68-128h-112.524zM208.41 576c-8.58-40.454-13.996-83.392-15.758-128h-127.444c3.336 44.194 13.622 87.114 30.678 128h112.524zM686.036 576c9.614-40.962 15.398-83.854 17.28-128h-191.316v128h174.036zM512 640v187.338c14.59-4.246 29.044-11.37 43.228-21.37 26.582-18.74 52.012-47.608 73.54-83.486 14.882-24.802 27.752-52.416 38.496-82.484h-155.264zM331.232 722.484c21.528 35.878 46.956 64.748 73.54 83.486 14.182 10 28.638 17.124 43.228 21.37v-187.34h-155.264c10.746 30.066 23.616 57.68 38.496 82.484zM448 576v-128h-191.314c1.88 44.146 7.666 87.038 17.278 128h174.036zM95.888 256c-17.056 40.886-27.342 83.804-30.678 128h127.444c1.762-44.608 7.178-87.546 15.758-128h-112.524zM256.686 384h191.314v-128h-174.036c-9.612 40.96-15.398 83.854-17.278 128zM448 192v-187.34c-14.588 4.246-29.044 11.372-43.228 21.37-26.584 18.74-52.014 47.61-73.54 83.486-14.882 24.804-27.75 52.418-38.498 82.484h155.266zM628.768 109.516c-21.528-35.876-46.958-64.746-73.54-83.486-14.184-9.998-28.638-17.124-43.228-21.37v187.34h155.266c-10.746-30.066-23.616-57.68-38.498-82.484zM512 256v128h191.314c-1.88-44.146-7.666-87.040-17.28-128h-174.034zM767.348 448c-1.762 44.608-7.178 87.546-15.758 128h112.524c17.056-40.886 27.344-83.806 30.68-128h-127.446zM830.658 640h-95.9c-18.638 58.762-44.376 110.294-75.316 151.428 42.536-20.34 81.058-47.616 114.714-81.272 21.48-21.478 40.362-44.938 56.502-70.156zM185.844 710.156c33.658 33.658 72.18 60.932 114.714 81.272-30.942-41.134-56.676-92.666-75.316-151.428h-95.898c16.138 25.218 35.022 48.678 56.5 70.156zM129.344 192h95.898c18.64-58.762 44.376-110.294 75.318-151.43-42.536 20.34-81.058 47.616-114.714 81.274-21.48 21.478-40.364 44.938-56.502 70.156zM774.156 121.844c-33.656-33.658-72.18-60.934-114.714-81.274 30.942 41.134 56.678 92.668 75.316 151.43h95.9c-16.14-25.218-35.022-48.678-56.502-70.156z" />
<glyph unicode="&#xe9ca;" glyph-name="earth" d="M512 960c-282.77 0-512-229.23-512-512s229.23-512 512-512 512 229.23 512 512-229.23 512-512 512zM512-0.002c-62.958 0-122.872 13.012-177.23 36.452l233.148 262.29c5.206 5.858 8.082 13.422 8.082 21.26v96c0 17.674-14.326 32-32 32-112.99 0-232.204 117.462-233.374 118.626-6 6.002-14.14 9.374-22.626 9.374h-128c-17.672 0-32-14.328-32-32v-192c0-12.122 6.848-23.202 17.69-28.622l110.31-55.156v-187.886c-116.052 80.956-192 215.432-192 367.664 0 68.714 15.49 133.806 43.138 192h116.862c8.488 0 16.626 3.372 22.628 9.372l128 128c6 6.002 9.372 14.14 9.372 22.628v77.412c40.562 12.074 83.518 18.588 128 18.588 70.406 0 137.004-16.26 196.282-45.2-4.144-3.502-8.176-7.164-12.046-11.036-36.266-36.264-56.236-84.478-56.236-135.764s19.97-99.5 56.236-135.764c36.434-36.432 85.218-56.264 135.634-56.26 3.166 0 6.342 0.080 9.518 0.236 13.814-51.802 38.752-186.656-8.404-372.334-0.444-1.744-0.696-3.488-0.842-5.224-81.324-83.080-194.7-134.656-320.142-134.656z" />
<glyph unicode="&#xe9cc;" glyph-name="flag" d="M0 960h128v-1024h-128v1024zM832 316.998c82.624 0 154.57 19.984 192 49.5v512c-37.43-29.518-109.376-49.502-192-49.502s-154.57 19.984-192 49.502v-512c37.43-29.516 109.376-49.5 192-49.5zM608 927.472c-46.906 19.94-115.52 32.528-192 32.528-96.396 0-180.334-19.984-224-49.502v-512c43.666 29.518 127.604 49.502 224 49.502 76.48 0 145.094-12.588 192-32.528v512z" />
<glyph unicode="&#xe9dc;" glyph-name="man" d="M576 864c0-53.019-42.981-96-96-96s-96 42.981-96 96c0 53.019 42.981 96 96 96s96-42.981 96-96zM576 704h-192c-35.346 0-64-28.654-64-64v-320h64v-384h80v384h32v-384h80v384h64v320c0 35.346-28.652 64-64 64z" />
<glyph unicode="&#xe9dd;" glyph-name="woman" d="M576 864c0-53.019-42.981-96-96-96s-96 42.981-96 96c0 53.019 42.981 96 96 96s96-42.981 96-96zM719 448l49 35.5-133.286 206.116c-5.92 8.98-15.958 14.384-26.714 14.384h-256c-10.756 0-20.792-5.404-26.714-14.384l-133.286-206.116 49-35.5 110.644 143.596 38.458-89.74-134.102-245.856h122.666l21.334-320h64v320h32v-320h64l21.334 320h122.666l-134.104 245.858 38.458 89.74 110.646-143.598z" />
<glyph unicode="&#xe9de;" glyph-name="man-woman" d="M256 864c0-53.019-42.981-96-96-96s-96 42.981-96 96c0 53.019 42.981 96 96 96s96-42.981 96-96zM832 864c0-53.019-42.981-96-96-96s-96 42.981-96 96c0 53.019 42.981 96 96 96s96-42.981 96-96zM256 704h-192c-35.346 0-64-28.654-64-64v-320h64v-384h80v384h32v-384h80v384h64v320c0 35.346-28.652 64-64 64zM975 448l49 35.5-133.286 206.116c-5.92 8.98-15.958 14.384-26.714 14.384h-256c-10.756 0-20.792-5.404-26.714-14.384l-133.286-206.116 49-35.5 110.644 143.596 38.458-89.74-134.102-245.856h122.666l21.334-320h64v320h32v-320h64l21.334 320h122.666l-134.104 245.858 38.458 89.74 110.646-143.598z" />
<glyph unicode="&#xe9df;" glyph-name="happy" d="M512-64c282.77 0 512 229.23 512 512s-229.23 512-512 512-512-229.23-512-512 229.23-512 512-512zM512 864c229.75 0 416-186.25 416-416s-186.25-416-416-416-416 186.25-416 416 186.25 416 416 416zM512 361.24c115.95 0 226.23 30.806 320 84.92-14.574-178.438-153.128-318.16-320-318.16-166.868 0-305.422 139.872-320 318.304 93.77-54.112 204.050-85.064 320-85.064zM256 608c0 53.019 28.654 96 64 96s64-42.981 64-96c0-53.019-28.654-96-64-96s-64 42.981-64 96zM640 608c0 53.019 28.654 96 64 96s64-42.981 64-96c0-53.019-28.654-96-64-96s-64 42.981-64 96z" />
<glyph unicode="&#x1f451;" glyph-name="camera" d="M42.667 149.332v0zM128 703.999v0zM298.667 703.999v-42.667c14.266 0 27.587 7.13 35.501 18.999l-35.501 23.667zM384 831.999v42.667c-14.266 0-27.587-7.13-35.501-18.999l35.501-23.667zM640 831.999l35.503 23.667c-7.915 11.87-21.235 18.999-35.503 18.999v-42.667zM725.333 703.999l-35.503-23.667c7.915-11.87 21.235-18.999 35.503-18.999v42.667zM896 703.999v0zM938.667 149.332c0-11.315-4.497-22.17-12.497-30.17l60.339-60.339c24.004 24.004 37.491 56.559 37.491 90.509h-85.333zM926.17 119.163c-8-8-18.854-12.497-30.17-12.497v-85.333c33.95 0 66.505 13.487 90.509 37.491l-60.339 60.339zM896 106.666h-768v-85.333h768v85.333zM128 106.666c-11.316 0-22.168 4.497-30.17 12.497l-60.34-60.339c24.005-24.004 56.562-37.491 90.51-37.491v85.333zM97.83 119.163c-8.001 8-12.497 18.854-12.497 30.17h-85.333c0-33.95 13.486-66.505 37.49-90.509l60.34 60.339zM85.333 149.332v469.333h-85.333v-469.333h85.333zM85.333 618.666c0 11.316 4.495 22.168 12.497 30.17l-60.34 60.34c-24.005-24.005-37.49-56.562-37.49-90.51h85.333zM97.83 648.836c8.002 8.001 18.854 12.497 30.17 12.497v85.333c-33.948 0-66.505-13.486-90.51-37.49l60.34-60.34zM128 661.332h170.667v85.333h-170.667v-85.333zM334.167 680.332l85.333 128-71.002 47.334-85.333-128 71.002-47.334zM384 789.332h256v85.333h-256v-85.333zM604.497 808.332l85.333-128 71.006 47.334-85.333 128-71.006-47.334zM725.333 661.332h170.667v85.333h-170.667v-85.333zM896 661.332c11.315 0 22.17-4.495 30.17-12.497l60.339 60.34c-24.004 24.005-56.559 37.49-90.509 37.49v-85.333zM926.17 648.836c8-8.002 12.497-18.854 12.497-30.17h85.333c0 33.948-13.487 66.505-37.491 90.51l-60.339-60.34zM938.667 618.666v-469.333h85.333v469.333h-85.333zM640 405.332c0-70.694-57.306-128-128-128v-85.333c117.82 0 213.333 95.514 213.333 213.333h-85.333zM512 277.332c-70.694 0-128 57.306-128 128h-85.333c0-117.82 95.513-213.333 213.333-213.333v85.333zM384 405.332c0 70.694 57.306 128 128 128v85.333c-117.821 0-213.333-95.514-213.333-213.333h85.333zM512 533.332c70.694 0 128-57.306 128-128h85.333c0 117.82-95.514 213.333-213.333 213.333v-85.333z" />
</font>
</defs>
</svg>
